<?xml version="1.0" encoding="UTF-8" standalone="no"?>
<svg width="64px" height="67px" viewBox="0 0 64 67" version="1.1" xmlns="http://www.w3.org/2000/svg" xmlns:xlink="http://www.w3.org/1999/xlink" xmlns:sketch="http://www.bohemiancoding.com/sketch/ns">
    <!-- Generator: Sketch 3.3.2 (12043) - http://www.bohemiancoding.com/sketch -->
    <title>Slice 1</title>
    <desc>Created with Sketch.</desc>
    <defs></defs>
    <g id="Page-1" stroke="none" stroke-width="1" fill="none" fill-rule="evenodd" sketch:type="MSPage">
        <g id="Astronaut-megaphone" sketch:type="MSLayerGroup" fill="#000000">
            <path d="M56.2,20.1 L61,20.1 L61,20.9 L56.2,20.9 L56.2,20.1 L56.2,20.1 Z M56.2,22.8 L61,22.8 L61,22 L56.2,22 L56.2,22.8 L56.2,22.8 Z M56.2,24.7 L61,24.7 L61,23.9 L56.2,23.9 L56.2,24.7 L56.2,24.7 Z M63.9,18.4 L63.9,44.9 C63.9,45.9 63.1,46.8 62,46.8 L55.2,46.8 C55,46.8 54.8,46.8 54.6,46.7 L54.6,67 L29.9,67 L29.9,63.4 C30,60.2 32.6,57.6 35.8,57.6 L35.9,57.6 L35.9,42.2 L26.5,32.8 L27.3,32 C25.7,29.8 25.8,26.8 27.8,24.9 L28.2,24.5 L32.4,28.7 L35.8,32.1 L35.8,30.9 C35.8,29 36.3,27.3 37.3,25.7 C37.1,25.6 37,25.5 36.8,25.4 L36.8,25.4 L36.6,25.3 L36.5,25.2 C36.4,25.1 36.3,25.1 36.2,25 C35.8,24.7 35.4,24.4 35,24 L34.9,23.9 C33.5,22.6 32.3,21.1 31.6,19.4 L31.6,19.3 C31.5,19.1 31.5,19 31.4,18.8 C31.4,18.7 31.3,18.7 31.3,18.6 C31.2,18.5 31.2,18.3 31.1,18.2 C31.1,18.1 31,18 31,17.9 C30.9,17.7 30.9,17.5 30.8,17.3 C30.8,17.1 30.7,17 30.7,16.8 C30.7,16.7 30.7,16.6 30.6,16.5 C30.6,16.3 30.5,16.2 30.5,16 L30.5,15.7 L30.5,15.2 L30.5,15 L30.5,14.2 L30.5,13.6 L30.5,13.3 L30.5,13 L30.5,12.7 L30.5,12.5 C30.5,12.4 30.5,12.2 30.6,12.1 L30.6,12 C30.8,11.1 31,10.2 31.4,9.4 C31.4,9.4 31.4,9.4 31.4,9.3 C31.5,9.2 31.5,9 31.6,8.9 C31.6,8.8 31.7,8.8 31.7,8.7 C31.8,8.6 31.8,8.5 31.9,8.4 C31.9,8.3 32,8.2 32,8.1 C32,8 32.1,7.9 32.1,7.9 C32.2,7.8 32.3,7.6 32.4,7.5 C32.4,7.5 32.4,7.5 32.4,7.4 C32.7,6.9 33.1,6.4 33.5,5.9 L33.7,5.7 C36.2,2.8 39.9,1 44,1 C51.5,1 57.5,6.9 57.5,14.2 C57.5,15 57.4,15.8 57.3,16.5 L62,16.5 C63.1,16.5 63.9,17.4 63.9,18.4 L63.9,18.4 Z M45.5,13.9 C45.5,11.4 44.8,10.1 44.3,9.6 C44.3,9.6 44.2,9.5 44.2,9.4 L44.1,9.3 C43.5,8.7 41.1,6.9 35.2,6.9 L34.2,6.9 C34,7.1 33.9,7.3 33.7,7.5 L33.7,7.5 C33.6,7.6 33.5,7.8 33.4,7.9 L33.4,8 C33.3,8.1 33.2,8.3 33.2,8.4 C33.2,8.4 33.2,8.5 33.1,8.5 C33,8.6 33,8.7 32.9,8.8 C32.8,9 32.7,9.2 32.6,9.3 C32.6,9.3 32.6,9.3 32.6,9.4 C32.5,9.5 32.5,9.7 32.4,9.8 C32.4,9.8 32.4,9.8 32.4,9.9 C32.3,10 32.3,10.2 32.2,10.3 L32.2,10.3 C32,10.9 31.8,11.5 31.7,12.1 C31.7,12.1 31.7,12.1 31.7,12.2 C31.7,12.3 31.7,12.4 31.6,12.6 L31.6,12.8 L31.6,13.1 L31.6,13.4 L31.6,13.6 L31.6,14.2 L31.6,14.9 L31.6,15.1 L31.6,15.6 L31.6,15.9 C31.6,16 31.6,16.2 31.7,16.3 L31.7,16.6 C31.7,16.7 31.8,16.9 31.8,17 C31.8,17.1 31.8,17.2 31.9,17.3 C31.9,17.5 32,17.6 32,17.8 C32.1,18 32.1,18.1 32.2,18.3 C32.2,18.4 32.2,18.4 32.3,18.5 C32.4,18.6 32.4,18.8 32.5,18.9 C32.5,18.9 32.5,19 32.6,19 C32.7,19.2 32.7,19.3 32.8,19.5 L32.8,19.5 C33.5,20.9 34.4,22.1 35.5,23.1 C35.5,23.1 35.6,23.1 35.6,23.2 L35.9,23.5 C36,23.6 36,23.6 36.1,23.6 C36.2,23.7 36.3,23.8 36.4,23.8 C36.5,23.9 36.6,24 36.7,24 C36.8,24 36.8,24.1 36.9,24.1 C41.9,23.2 45.5,18.9 45.5,13.9 L45.5,13.9 Z M28.2,31.1 L30.7,28.6 L28.3,26.2 C27.1,27.6 27.1,29.6 28.2,31.1 L28.2,31.1 Z M37.2,41.9 C37.7,42.4 38.5,42.8 39.3,42.8 C40.1,42.8 40.8,42.5 41.4,41.9 L47.3,36 C48.4,34.9 48.4,33 47.3,31.9 C46.8,31.4 46,31 45.2,31 C44.4,31 43.7,31.3 43.1,31.9 L38.5,36.5 L31.5,29.5 L28.2,32.8 L37.2,41.9 L37.2,41.9 Z M33.9,64.2 L31.3,64.2 L31.3,65.7 L33.9,65.7 L33.9,64.2 L33.9,64.2 Z M34.1,63 C34.3,61.3 35.1,59.8 36.4,58.8 L35.8,58.8 C33.4,58.8 31.4,60.7 31.2,63.1 L34.1,63.1 L34.1,63 Z M35.3,63 L44.6,63 C44.4,61.1 43.1,59.6 41.4,59 C41.2,58.9 41,58.9 40.7,58.8 C40.5,58.8 40.3,58.7 40,58.7 L39.9,58.7 L39.3,58.7 C38.8,58.8 38.3,58.9 37.8,59.2 C36.5,60 35.5,61.4 35.3,63 L35.3,63 Z M53.4,64.2 L35.4,64.2 L35.4,65.7 L53.4,65.7 L53.4,64.2 L53.4,64.2 Z M53.4,45 L53.4,44.9 L53.4,30.4 C53.3,28.5 52.6,26.7 51.4,25.3 C49.3,26.7 46.7,27.5 44,27.5 C42,27.5 40.1,27.1 38.5,26.3 C37.6,27.7 37.2,29.3 37.2,30.9 L37.2,33.3 L38.7,34.8 L42.4,31.1 C43.2,30.3 44.2,29.9 45.3,29.9 C46.4,29.9 47.4,30.3 48.2,31.1 C49,31.9 49.4,32.9 49.4,34 C49.4,35.1 49,36.1 48.2,36.9 L42.3,42.8 C41.5,43.6 40.5,44 39.4,44 C38.6,44 37.8,43.8 37.2,43.3 L37.2,57.7 C37.5,57.8 37.8,57.8 38,58 C38.7,57.7 39.4,57.6 40.1,57.6 L40.2,57.6 L40.2,47.7 L41.5,47.7 L41.5,57.8 C43.9,58.4 45.7,60.5 45.9,63.1 L53.4,63.1 L53.4,45 L53.4,45 Z M53.3,26.1 L53.3,23.7 C53,24 52.6,24.3 52.3,24.6 C52.7,25 53,25.5 53.3,26.1 L53.3,26.1 Z M56.2,14.2 C56.2,7.6 50.7,2.3 43.9,2.3 C40.6,2.3 37.6,3.6 35.4,5.7 C41.5,5.7 44.2,7.6 45,8.5 L45.1,8.6 C45.2,8.7 45.3,8.8 45.3,8.9 C45.9,9.7 46.7,11.2 46.7,14 C46.7,19.2 43.4,23.6 38.6,25.1 C40.2,25.8 42,26.2 43.8,26.2 C50.7,26.2 56.2,20.8 56.2,14.2 L56.2,14.2 Z M62.6,18.4 C62.6,18.1 62.3,17.8 62,17.8 L56.9,17.8 C56.4,19.5 55.6,21 54.6,22.3 L54.6,44.9 C54.6,45.2 54.9,45.5 55.2,45.5 L62,45.5 C62.3,45.5 62.6,45.2 62.6,44.9 L62.6,18.4 L62.6,18.4 Z M25.9,17.5 L25.9,23.4 C25.9,23.7 25.7,24 25.4,24 C19.2,24.2 14.6,25.3 10.9,27.4 C10.8,27.4 10.7,27.5 10.6,27.5 C10.5,27.5 10.4,27.5 10.3,27.4 C10.1,27.3 10,27.1 10,26.9 L10,14 C10,13.8 10.1,13.6 10.3,13.5 C10.4,13.4 10.5,13.4 10.6,13.4 C10.7,13.4 10.8,13.4 10.9,13.5 C14.7,15.6 19.3,16.7 25.4,16.9 C25.6,16.9 25.9,17.2 25.9,17.5 L25.9,17.5 Z M24.6,18.2 C19.1,17.9 14.8,16.9 11.2,15.2 L11.2,25.9 C14.8,24.1 19.1,23.2 24.6,22.9 L24.6,18.2 L24.6,18.2 Z M27,23.4 L27,17.5 C27,17.2 27.3,16.9 27.6,16.9 C29.5,16.9 31.1,18.5 31.1,20.4 C31.1,22.3 29.5,23.9 27.6,23.9 C27.2,24 27,23.7 27,23.4 L27,23.4 Z M28.2,22.6 C29.1,22.3 29.8,21.5 29.8,20.5 C29.8,19.5 29.1,18.6 28.2,18.4 L28.2,22.6 L28.2,22.6 Z M4.8,26.5 C2.7,25.2 1.4,22.9 1.4,20.5 C1.4,18.1 2.7,15.7 4.8,14.5 C5.1,14.3 5.2,13.9 5,13.6 C4.8,13.3 4.4,13.2 4.1,13.4 C1.6,14.9 0,17.6 0,20.5 C0,23.4 1.6,26.1 4.1,27.6 C4.2,27.7 4.3,27.7 4.4,27.7 C4.6,27.7 4.8,27.6 4.9,27.4 C5.2,27 5.1,26.7 4.8,26.5 L4.8,26.5 Z M7.9,16.8 C8.2,16.6 8.3,16.2 8.1,15.9 C7.9,15.6 7.5,15.5 7.2,15.7 C5.5,16.7 4.5,18.5 4.5,20.4 C4.5,22.3 5.5,24.1 7.2,25.1 C7.3,25.2 7.4,25.2 7.5,25.2 C7.7,25.2 7.9,25.1 8,24.9 C8.2,24.6 8.1,24.2 7.8,24 C6.5,23.2 5.7,21.9 5.7,20.4 C5.8,19 6.6,17.6 7.9,16.8 L7.9,16.8 Z" id="Shape" sketch:type="MSShapeGroup"></path>
        </g>
    </g>
</svg>