<?xml version="1.0" encoding="UTF-8" standalone="no"?>
<svg width="100px" height="100px" viewBox="0 0 100 100" version="1.1" xmlns="http://www.w3.org/2000/svg" xmlns:xlink="http://www.w3.org/1999/xlink" xmlns:sketch="http://www.bohemiancoding.com/sketch/ns">
    <!-- Generator: Sketch 3.3.2 (12043) - http://www.bohemiancoding.com/sketch -->
    <title>Slice 1</title>
    <desc>Created with Sketch.</desc>
    <defs></defs>
    <g id="Page-1" stroke="none" stroke-width="1" fill="none" fill-rule="evenodd" sketch:type="MSPage">
        <g id="dribbble" sketch:type="MSLayerGroup" fill="#26D85F">
            <path d="M74.6887967,22.1887967 C74.06639,23.1224066 68.4439834,30.6224066 55,35.6224066 C48.7551867,24.3775934 42.1887967,15 40.93361,13.7448133 C43.7448133,13.1224066 46.5560166,12.8112033 49.6784232,12.8112033 C59.3775934,12.8112033 68.1224066,16.2551867 74.6887967,22.1887967 L74.6887967,22.1887967 L74.6887967,22.1887967 Z M52.5,50.3112033 C33.1224066,56.5560166 23.1224066,73.43361 22.1887967,75 C16.2551867,68.43361 12.5,59.6887967 12.5,50 L12.5,48.7551867 C14.06639,48.7551867 32.1887967,49.06639 50.93361,43.4439834 C51.8672199,45.6327801 53.1224066,47.5103734 54.0560166,49.6887967 C53.43361,50 53.1224066,50.3112033 52.5,50.3112033 L52.5,50.3112033 L52.5,50.3112033 Z M50,0 C22.5,0 0,22.5 0,50 C0,77.5 22.5,100 50,100 C77.5,100 100,77.5 100,50 C100,22.5 77.5,0 50,0 L50,0 Z M50,93.7551867 C25.93361,93.7551867 6.24481328,74.06639 6.24481328,50 C6.24481328,25.93361 25.93361,6.24481328 50,6.24481328 C74.06639,6.24481328 93.7551867,25.93361 93.7551867,50 C93.7551867,74.06639 74.06639,93.7551867 50,93.7551867 L50,93.7551867 Z M60.6224066,46.56639 C60,44.6887967 59.0560166,42.8112033 58.1224066,41.2551867 C71.8672199,35.6327801 78.1224066,27.5103734 79.0560166,26.56639 C84.3672199,32.8112033 87.4896266,40.9439834 87.4896266,49.6887967 C86.2448133,49.3775934 74.0560166,46.8775934 61.5560166,48.4439834 C60.93361,47.8112033 60.93361,47.1887967 60.6224066,46.56639 L60.6224066,46.56639 L60.6224066,46.56639 Z M48.1224066,37.8112033 C30.6224066,42.5 15.3112033,42.5 13.43361,42.5 C15.93361,30.93361 23.7448133,21.2551867 34.0560166,16.2551867 C35,17.5 41.8775934,26.8775934 48.1224066,37.8112033 L48.1224066,37.8112033 L48.1224066,37.8112033 Z M56.2448133,56.2448133 L56.2448133,56.2448133 C61.8672199,69.6784232 64.0560166,81.2448133 64.3672199,84.3672199 C59.9896266,86.2448133 54.9896266,87.4896266 49.6784232,87.4896266 C40.93361,87.4896266 33.1120332,84.6784232 26.8672199,79.6784232 C27.8112033,78.1224066 35.3112033,63.43361 56.2448133,56.2448133 L56.2448133,56.2448133 L56.2448133,56.2448133 Z M63.7448133,54.3775934 C75.3112033,52.5 85.6224066,55.6224066 86.8672199,55.9439834 C85.3008299,66.2551867 79.3672199,75.3215768 70.93361,80.9439834 C70.6224066,78.7551867 68.43361,67.8112033 63.7448133,54.3775934 L63.7448133,54.3775934 Z" id="Shape" sketch:type="MSShapeGroup"></path>
        </g>
    </g>
</svg>