<?xml version="1.0" encoding="UTF-8" standalone="no"?>
<svg width="100px" height="100px" viewBox="0 0 100 100" version="1.1" xmlns="http://www.w3.org/2000/svg" xmlns:xlink="http://www.w3.org/1999/xlink" xmlns:sketch="http://www.bohemiancoding.com/sketch/ns">
    <!-- Generator: Sketch 3.3.2 (12043) - http://www.bohemiancoding.com/sketch -->
    <title>Slice 1</title>
    <desc>Created with Sketch.</desc>
    <defs></defs>
    <g id="Page-1" stroke="none" stroke-width="1" fill="none" fill-rule="evenodd" sketch:type="MSPage">
        <g id="github" sketch:type="MSLayerGroup" fill="#26D85F">
            <path d="M50,0 C22.5,0 0,22.5 0,50 C0,77.5 22.5,100 50,100 C77.5,100 100,77.5 100,50 C100,22.5 77.5,0 50,0 L50,0 Z M79.688716,79.688716 C75.9338521,83.4435798 71.2548638,86.5661479 66.2548638,88.7548638 C65.0097276,89.3774319 63.7548638,89.688716 62.5,90.3210117 L62.5,82.8210117 C62.5,78.7548638 61.2548638,75.9435798 58.4338521,74.0758755 C60,73.7645914 61.5564202,73.7645914 63.1225681,73.4533074 C64.688716,73.1420233 65.9338521,72.8307393 67.5,72.2081712 C69.0661479,71.5856031 70.6225681,70.963035 71.8774319,70.3307393 C73.1322957,69.6984436 74.3774319,68.4533074 75.6322957,67.2081712 C76.8774319,65.963035 77.8210117,64.7081712 78.4435798,63.1420233 C79.0661479,61.5758755 79.688716,59.7081712 80.3210117,57.5194553 C80.6322957,55.3307393 80.9435798,52.8307393 80.9435798,50.3307393 C80.9435798,45.3307393 79.3774319,40.9533074 75.9435798,37.5194553 C77.5097276,33.7645914 77.188716,29.3968872 75.3210117,24.7081712 L74.0758755,24.7081712 C73.1420233,24.7081712 71.5758755,25.0194553 69.3871595,25.6420233 C67.1984436,26.5758755 64.6984436,27.8307393 61.8871595,29.7081712 C58.1322957,28.7743191 54.0758755,28.1420233 49.6984436,28.1420233 C45.6322957,28.1420233 41.5758755,28.7645914 37.8210117,29.7081712 C35.9435798,28.463035 34.3871595,27.5194553 32.8210117,26.8968872 C31.2548638,26.2743191 30.0097276,25.651751 29.0661479,25.3307393 C28.1322957,25.0194553 27.188716,25.0194553 26.5661479,24.7081712 C25.9435798,24.3968872 25.3210117,24.7081712 25,24.7081712 L24.3774319,24.7081712 C22.5,29.3968872 22.5,33.4533074 23.7548638,37.5194553 C20.3210117,40.9533074 18.7548638,45.3307393 18.7548638,50.3307393 C18.7548638,52.8307393 19.0661479,55.3307393 19.3774319,57.5194553 C19.688716,59.7081712 20.311284,61.5856031 21.2548638,63.1420233 C22.188716,64.7081712 23.1322957,65.9533074 24.0661479,67.2081712 C25.311284,68.4533074 26.5661479,69.3968872 27.8210117,70.3307393 C29.0758755,71.2645914 30.6322957,71.8968872 32.1984436,72.2081712 C33.7645914,72.5194553 35.3210117,73.1420233 36.5758755,73.4533074 C38.1420233,73.7645914 39.6984436,74.0758755 41.2645914,74.0758755 C38.4533074,75.9533074 37.1984436,78.7645914 37.1984436,82.8210117 L37.1984436,90.3210117 C35.6322957,90.0097276 34.3871595,89.3871595 32.8210117,88.7548638 C27.8210117,86.5661479 23.4435798,83.7548638 19.3871595,79.688716 C15.6322957,75.9338521 12.5097276,71.2548638 10.3210117,66.2548638 C8.13229572,60.9435798 6.88715953,55.6322957 6.88715953,50 C6.88715953,44.3774319 8.13229572,38.7451362 10.3210117,33.7451362 C12.5097276,28.7451362 15.3210117,24.3677043 19.3871595,20.311284 C23.1420233,16.5564202 27.8210117,13.4338521 32.8210117,11.2451362 C38.1322957,9.05642023 43.4435798,7.81128405 49.0758755,7.81128405 C54.6984436,7.81128405 60.3307393,9.05642023 65.3307393,11.2451362 C70.3307393,13.4338521 74.7081712,16.2451362 78.7645914,20.311284 C82.5194553,24.0661479 85.6420233,28.7451362 87.8307393,33.7451362 C90.0194553,39.0564202 91.2645914,44.3677043 91.2645914,50 C91.2645914,55.6322957 90.0194553,61.2548638 87.8307393,66.2548638 C86.5661479,71.2451362 83.4338521,75.9338521 79.688716,79.688716 L79.688716,79.688716 L79.688716,79.688716 Z" id="Shape" sketch:type="MSShapeGroup"></path>
        </g>
    </g>
</svg>