<?xml version="1.0" encoding="UTF-8" standalone="no"?>
<svg width="1037px" height="1038px" viewBox="0 0 1037 1038" version="1.1" xmlns="http://www.w3.org/2000/svg" xmlns:xlink="http://www.w3.org/1999/xlink" xmlns:sketch="http://www.bohemiancoding.com/sketch/ns">
    <!-- Generator: Sketch 3.3.2 (12043) - http://www.bohemiancoding.com/sketch -->
    <title>Slice 1</title>
    <desc>Created with Sketch.</desc>
    <defs></defs>
    <g id="Page-1" stroke="none" stroke-width="1" fill="none" fill-rule="evenodd" sketch:type="MSPage">
        <g id="logo" sketch:type="MSLayerGroup" transform="translate(-382.000000, -72.000000)">
            <g id="Layer_1_1_" transform="translate(382.000000, 72.000000)">
                <g id="Group" transform="translate(24.795400, 602.233000)"></g>
                <path d="M442.4,318 L442.4,533.2 L378,597.6 L399.8,748 C399.8,748 448.9,660.6 498.1,629.7 L529.4,877.1 L560.7,625.4 C625.9,651.1 658.5,748.4 658.5,748.4 L680.2,598 L615.9,533.7 L615.9,318.4 L529.8,189.3 L442.4,318 L442.4,318 Z" id="Shape" fill="#26D85F" sketch:type="MSShapeGroup"></path>
                <path d="M1035.4,519.7 L1035.4,528.8 C1035,534.9 1035.4,543.6 1034.5,554.9 C1033.2,577.5 1029.3,611 1018.4,652.3 C1017.1,657.5 1015.4,662.7 1014.1,668 C1012.4,673.2 1010.6,678.9 1008.9,684.5 C1007.2,690.2 1005,695.8 1002.8,701.5 C1000.6,707.2 998.5,713.2 995.8,718.9 C985.8,742.8 973.2,767.6 957.5,792.8 C941.4,818 922.7,843.7 899.7,868.5 C876.7,893.3 850.6,917.6 820.6,939.4 C790.2,961.1 756.7,980.7 719.3,996.4 C681.9,1012.5 641.5,1024.2 598.4,1031.2 C593.2,1032.1 587.5,1032.9 582.3,1033.4 C576.6,1033.8 571.4,1034.7 565.8,1035.1 C560.1,1035.5 554.9,1036 549.3,1036.4 L541,1036.8 L532.3,1036.8 C527.1,1036.8 521.4,1036.8 516.2,1037.2 C510.5,1037.2 504.9,1036.8 498.8,1036.8 C487.1,1036.8 475.8,1035.5 464,1034.6 C441,1032 417.9,1028.5 394.9,1022.9 C383.2,1020.3 371.9,1016.8 360.6,1013.3 C354.9,1011.6 349.3,1009.4 343.6,1007.2 L334.9,1004.2 L326.6,1000.7 C304,992 281.8,981.1 260.5,969 C255.3,966 250.1,962.5 244.4,959.4 C239.2,955.9 234,952.4 228.7,949 C223.5,945.5 218.3,942 213.5,938.1 C208.3,934.2 203.1,930.7 198.3,926.8 C158.7,895.5 123.1,858.1 93.5,815.5 C78.7,794.2 65.7,771.6 53.9,748.1 C42.2,724.6 33,699.8 24.8,675.1 C16.5,649.9 10.9,624.2 7,598.1 C3.1,572 1.3,545.5 0.9,519 L1.3,499.4 C1.3,496.4 1.3,493.7 1.7,489.8 L2.6,479.4 C3,472.4 3.5,465.5 4.3,459 L6.9,439.4 C11.2,413.3 16.5,387.2 24.7,362.4 C33,337.2 42.1,312.8 53.8,289.4 C65.5,265.9 78.6,243.3 93.4,222 C123,179.4 158.6,142 198.2,110.7 C237.8,79.8 281.2,54.6 326.5,36.8 L334.8,33.3 L343.5,30.3 C349.2,28.1 354.8,26.4 360.5,24.2 C372.2,20.7 383.5,17.2 394.8,14.6 C417.8,8.9 440.9,5.5 463.9,2.9 C475.6,2 486.9,0.7 498.2,0.7 C503.9,0.7 509.5,0.3 515.2,0.3 C520.9,0.3 526.5,0.3 532.2,0.7 L540.9,0.7 L548.7,1.1 C553.9,1.5 559.1,2 564.8,2.4 C570.5,2.8 576.1,3.7 581.3,4.1 C587,5 592.6,5.4 597.8,6.3 C640.8,13.3 681.7,25 718.7,41.1 C756.1,56.8 790,76.8 820,98.1 C850.4,119.8 876.5,144.2 899.1,169 C921.7,193.8 940.8,219.4 956.9,244.7 C973,269.9 985.2,295.1 995.2,318.6 C997.8,324.3 1000,330.3 1002.2,336 C1004.4,341.7 1006.5,347.3 1008.3,353 C1010.1,358.7 1011.8,364.3 1013.5,369.5 C1014.8,374.7 1016.5,380.4 1017.8,385.2 C1028.7,426.5 1032.6,460 1033.9,482.6 C1034.8,493.9 1034.8,502.6 1034.8,508.7 C1035.4,516.7 1035.4,519.7 1035.4,519.7 L1035.4,519.7 Z M1035.4,519.7 C1035.4,519.7 1035.4,516.7 1035,510.6 C1034.6,504.5 1035,495.8 1033.7,484.5 C1032,461.9 1028.5,428.4 1016.3,387.5 C1004.6,346.6 985,298.4 951.1,249.7 C934.6,225.4 914.1,201.4 890.7,178.4 C867.2,155.4 839.8,134.1 809.4,114.9 C779,96.2 745.1,80.1 708.5,68.4 C672,56.2 633.3,49.3 592.8,46.2 C587.6,45.8 582.8,45.8 578,45.3 C573.2,45.3 568,44.9 563.2,44.9 C558,44.9 552.8,44.9 547.1,45.3 L539.3,45.3 L532.3,45.7 C527.1,46.1 521.9,46.6 517.1,47 C511.9,47.4 506.7,48.3 501.9,48.7 C491.5,49.6 481.5,51.7 471,53.5 C450.6,57.8 430.1,62.6 410.1,69.6 C400.1,72.6 390.1,77 380.1,80.9 C375.3,83.1 370.5,85.2 365.3,87.4 L357.9,90.4 L350.9,93.9 C274.4,131.7 206.6,192.2 159.6,266.9 C136.1,304.3 117.9,344.7 105.3,387.3 L101,403.4 C99.7,408.6 98.8,414.3 97.5,419.5 L95.8,427.8 L94.5,436.1 C93.6,441.8 92.3,447 91.9,452.6 L89.7,469.1 C88.8,474.8 88.8,479.5 88.4,485.2 L88,493 C87.6,495.6 88,499.1 87.6,501.7 L87.6,510.8 L87.6,515.1 L87.6,517.3 L87.6,518.6 C87.6,518.6 87.6,520.3 87.6,518.6 C87.6,540.8 88.9,562.9 92.4,585.1 C93.3,590.8 94.1,596 95,601.6 L96.3,609.9 L98,618.2 C99.3,623.4 100.2,629.1 101.5,634.3 L105.8,650.4 C118.4,693 136.7,733.4 160.1,770.8 C207.1,845.6 274.9,906 351.4,943.8 L358.4,947.3 L365.8,950.3 C370.6,952.5 375.4,954.6 380.6,956.8 C390.6,960.7 400.2,964.6 410.6,968.1 C430.6,975.1 451,980.3 471.5,984.2 C481.9,985.9 491.9,988.1 501.9,989 C507.1,989.4 511.9,990.3 517.1,990.7 C522.3,991.1 528,991.6 533.2,992 L540.6,992.4 L548.4,992.4 C553.6,992.4 558.8,992.8 563.6,992.8 C568.8,992.8 573.6,992.4 578.8,992.4 C584,992.4 588.8,992.4 594,991.5 C634,988.5 673.1,981.5 709.7,969.3 C746.3,957.1 780.1,941.5 810.6,922.3 C841,903.6 868.4,881.9 891.9,858.8 C915.4,835.8 935.8,811.8 952.3,787.5 C986.2,738.8 1005.8,690.5 1017.5,649.7 C1029.2,608.8 1033.2,575.4 1034.9,552.7 C1036.2,541.4 1035.8,532.7 1036.2,526.6 C1035,522.8 1035.4,519.7 1035.4,519.7 L1035.4,519.7 Z" id="Shape" fill="#FFFFFF" sketch:type="MSShapeGroup"></path>
            </g>
        </g>
    </g>
</svg>