<?xml version="1.0" encoding="utf-8"?>
<!-- Generator: Adobe Illustrator 18.1.1, SVG Export Plug-In . SVG Version: 6.00 Build 0)  -->
<svg version="1.1" id="Layer_1" xmlns="http://www.w3.org/2000/svg" xmlns:xlink="http://www.w3.org/1999/xlink" x="0px" y="0px"
	 viewBox="113 113 468 886" enable-background="new 113 113 468 886" xml:space="preserve">
<path fill="#F9AE35" d="M352.7,817.4c31.6,4.2,52.7,33.7,50.6,65.4c-2.1,31.6-31.6,92.8-63.3,86.5c-31.6-4.2-50.6-73.8-48.5-105.5
	C293.6,834.3,321.1,813.2,352.7,817.4z"/>
<path fill="#F9D026" d="M346.4,821.6c16.9,2.1,29.5,19,27.4,35.9c-2.1,16.9-16.9,50.6-33.7,46.4c-16.9-2.1-27.4-40.1-27.4-56.9
	C314.7,830.1,329.5,819.5,346.4,821.6z"/>
<polygon display="none" fill="#82151D" points="174.1,2385.7 237.2,1829.8 300.3,2385.7 "/>
<path fill="#302B2F" d="M158.7,564.3c10.5-38,42.2-92.8,44.3-94.9s2.1-2.1,4.2-2.1c2.1,0,2.1,2.1,4.2,6.3l42.2,310
	c0,2.1,0,4.2-2.1,6.3c0,2.1-2.1,2.1-4.2,2.1c0,0-2.1,0-6.3,0c-14.8,0-52.7,8.4-65.4,78c0,2.1-2.1,6.3-4.2,6.3l0,0
	c-2.1,0-4.2-2.1-4.2-4.2C129.1,733,148.1,602.3,158.7,564.3"/>
<path fill="#647678" d="M534.1,564.3c10.5,38,29.5,170.8-10.5,307.9c0,2.1-2.1,4.2-4.2,4.2l0,0c-2.1,0-4.2-2.1-4.2-6.3
	c-12.7-69.6-50.6-78-65.4-78c-4.2,0-6.3,0-6.3,0c-2.1,0-2.1,0-4.2-2.1c-2.1-2.1-2.1-4.2-2.1-6.3l44.3-312.2c0-2.1,2.1-4.2,4.2-6.3
	c2.1,0,4.2,0,4.2,2.1C491.9,471.5,523.5,526.3,534.1,564.3"/>
<path fill="#2F3738" d="M413.9,796.3c-2.1,0-2.1-2.1-4.2-2.1c-12.7,2.1-33.7,6.3-63.3,6.3s-50.6-2.1-63.3-6.3c-2.1,0-4.2,0-4.2,2.1
	c-2.1,2.1-2.1,2.1-2.1,4.2v31.6c0,2.1,2.1,4.2,4.2,6.3c2.1,0,35.9,6.3,65.4,6.3c29.5,0,65.4-6.3,65.4-6.3c2.1,0,4.2-2.1,4.2-6.3
	v-31.6C416,798.4,413.9,798.4,413.9,796.3"/>
<g opacity="0.2">
	<g>
		<g>
			<g>
				<g>
					<defs>
						<rect id="SVGID_1_" x="276.8" y="680.3" width="135" height="21.1"/>
					</defs>
					<clipPath id="SVGID_2_">
						<use xlink:href="#SVGID_1_"  overflow="visible"/>
					</clipPath>
					<path clip-path="url(#SVGID_2_)" fill="#231F20" d="M411.8,682.4c-2.1,0-2.1-2.1-4.2,0c-12.7,2.1-33.7,6.3-61.2,6.3
						c-27.4,0-48.5-2.1-61.2-6.3c-2.1,0-2.1,0-4.2,0c-2.1,0-2.1,2.1-2.1,4.2v14.8c0-2.1,0-2.1,2.1-4.2c2.1,0,2.1-2.1,4.2-2.1
						c12.7,2.1,33.7,6.3,61.2,6.3c27.4,0,48.5-2.1,61.2-6.3c2.1,0,2.1,0,4.2,2.1c2.1,0,2.1,2.1,2.1,4.2v-14.8
						C413.9,684.5,411.8,682.4,411.8,682.4"/>
				</g>
			</g>
		</g>
	</g>
</g>
<path fill="#59D8E6" d="M344.3,131.9c-31.6,0-158.2,164.5-158.2,358.6c0,187.7,56.9,307.9,56.9,310c0,2.1,2.1,2.1,4.2,4.2
	c2.1,0,35.9,12.7,97,12.7c63.3,0,97-12.7,97-12.7c2.1,0,2.1-2.1,4.2-4.2c0-2.1,56.9-122.3,56.9-310
	C502.4,296.4,373.8,131.9,344.3,131.9"/>
<path fill="#2F3738" d="M439.2,246.2c-38.1-71.1-78.2-116.4-95.2-116.4s-57.1,45.3-95.2,116.4c10.6,4.3,42.3,10.8,95.2,10.8
	S428.6,248.4,439.2,246.2"/>
<path fill="#2F3738" d="M344.3,505.3c-46.4,0-86.5-38-86.5-86.5c0-46.4,38-86.5,86.5-86.5c46.4,0,86.5,38,86.5,86.5
	S390.7,505.3,344.3,505.3"/>
<path opacity="0.3" fill="#647678" enable-background="new    " d="M276.1,435c0-47.9,38.4-86.7,85.8-86.7
	c20.3,0,38.4,6.8,51.9,18.2c-15.8-20.5-40.6-34.2-70-34.2c-47.4,0-85.8,38.8-85.8,86.7c0,27.4,13.5,52.5,33.9,68.4
	C282.9,471.5,276.1,453.3,276.1,435"/>
<g opacity="0.4">
	<g>
		<g>
			<g>
				<g>
					<defs>
						
							<rect id="SVGID_3_" x="178.4" y="125.6" transform="matrix(1 1.294524e-03 -1.294524e-03 1 0.6092 -0.3685)" width="213" height="689.7"/>
					</defs>
					<clipPath id="SVGID_4_">
						<use xlink:href="#SVGID_3_"  overflow="visible"/>
					</clipPath>
					<path clip-path="url(#SVGID_4_)" fill="#231F20" d="M226,530.6c0-194,126.5-358.6,158.2-358.6c2.1,0,6.3,2.1,10.5,4.2
						c-21.1-27.4-40.1-44.3-50.6-44.3c-31.6,0-158.2,164.5-158.2,358.6c0,187.7,54.8,307.9,56.9,310c0,2.1,2.1,2.1,4.2,4.2
						c0,0,8.4,2.1,23.2,6.3C253.5,762.6,226,663.4,226,530.6"/>
				</g>
			</g>
		</g>
	</g>
</g>
<ellipse fill="#647678" cx="348.5" cy="712" rx="12.7" ry="183.5"/>
</svg>
