<?xml version="1.0" encoding="UTF-8" standalone="no"?>
<svg width="100px" height="100px" viewBox="0 0 100 100" version="1.1" xmlns="http://www.w3.org/2000/svg" xmlns:xlink="http://www.w3.org/1999/xlink" xmlns:sketch="http://www.bohemiancoding.com/sketch/ns">
    <!-- Generator: Sketch 3.3.2 (12043) - http://www.bohemiancoding.com/sketch -->
    <title>Slice 1</title>
    <desc>Created with Sketch.</desc>
    <defs></defs>
    <g id="Page-1" stroke="none" stroke-width="1" fill="none" fill-rule="evenodd" sketch:type="MSPage">
        <g id="twitter" sketch:type="MSLayerGroup" fill="#26D85F">
            <path d="M50,0 C22.5,0 0,22.5 0,50 C0,77.5 22.5,100 50,100 C77.5,100 100,77.5 100,50 C100,22.5 77.5,0 50,0 L50,0 Z M75,37.1875 L75,38.75 C75,55.625 62.1875,75.3125 38.4375,75.3125 C31.25,75.3125 24.375,73.125 18.75,69.6875 C19.6875,69.6875 20.625,70 21.875,70 C27.8125,70 33.4375,67.8125 37.8125,64.375 C32.1875,64.375 27.5,60.625 25.9375,55.625 C26.875,55.625 27.5,55.9375 28.4375,55.9375 C29.6875,55.9375 30.625,55.9375 31.875,55.625 C25.9375,54.375 21.5625,49.375 21.5625,43.125 C21.5625,43.125 21.5625,43.125 21.5625,42.8125 C23.4375,43.75 25.3125,44.375 27.5,44.375 C24.0625,42.1875 21.875,38.125 21.875,33.75 C21.875,31.25 22.5,29.0625 23.75,27.1875 C30,35 39.375,40 50.3125,40.625 C50,39.6875 50,38.75 50,37.8125 C50,30.625 55.625,25 62.8125,25 C66.5625,25 69.6875,26.5625 72.1875,29.0625 C75,28.4375 77.8125,27.5 80.3125,25.9375 C79.375,29.0625 77.1875,31.5625 74.6875,33.125 C77.1875,32.8125 79.6875,32.1875 82.1875,31.25 C79.6875,33.125 77.5,35.3125 75,37.1875 L75,37.1875 L75,37.1875 Z" id="Shape" sketch:type="MSShapeGroup"></path>
        </g>
    </g>
</svg>