<?xml version="1.0" encoding="UTF-8" standalone="no"?>
<svg width="42px" height="68px" viewBox="0 0 42 68" version="1.1" xmlns="http://www.w3.org/2000/svg" xmlns:xlink="http://www.w3.org/1999/xlink" xmlns:sketch="http://www.bohemiancoding.com/sketch/ns">
    <!-- Generator: Sketch 3.3.2 (12043) - http://www.bohemiancoding.com/sketch -->
    <title>Slice 1</title>
    <desc>Created with Sketch.</desc>
    <defs></defs>
    <g id="Page-1" stroke="none" stroke-width="1" fill="none" fill-rule="evenodd" sketch:type="MSPage">
        <g id="Astronaut-desk" sketch:type="MSLayerGroup" fill="#000000">
            <path d="M38.6,47 L3.4,47 L0.8,47 L0.8,49.3 L0.8,67.9 L3.4,67.9 L3.4,49.3 L9,49.3 L9,53.3 L9,61.4 L9,63 L9,66.6 L20.4,66.6 L21.8,66.6 L33.2,66.6 L33.2,63.7 L33.2,49.3 L38.8,49.3 L38.8,67.9 L41.4,67.9 L41.4,49.3 L41.4,47 L38.6,47 L38.6,47 Z M10.7,49.3 C10.5,49.5 10.4,49.7 10.2,49.9 L10.2,49.3 L10.7,49.3 L10.7,49.3 Z M10.2,53.1 C10.5,51.4 11.5,50.1 12.8,49.3 L17.5,49.3 C18.9,50.1 20,51.5 20.2,53.3 L20.2,53.3 L20.2,58.7 C19,57.2 17.2,56.3 15.3,56.3 C13.2,56.3 11.4,57.3 10.2,58.9 L10.2,53.1 L10.2,53.1 Z M20.3,61.7 L20.3,62.1 L10.3,62.1 C10.6,59.5 12.7,57.5 15.3,57.5 C17.8,57.6 19.8,59.3 20.3,61.7 L20.3,61.7 Z M20.3,63.6 L20.3,65.2 L10.3,65.2 L10.3,63.5 L20.3,63.6 L20.3,63.6 Z M19.7,49.3 L22.2,49.3 C21.7,49.8 21.3,50.4 21,51.1 C20.6,50.4 20.2,49.8 19.7,49.3 L19.7,49.3 Z M21.6,53.3 C21.8,51.6 22.8,50.1 24.3,49.3 L29,49.3 C30.4,50.1 31.5,51.5 31.7,53.3 L31.7,58.9 C30.5,57.3 28.7,56.3 26.6,56.3 C24.5,56.3 22.7,57.4 21.5,59 L21.5,53.3 L21.6,53.3 Z M21.7,62.2 C22,59.6 24.1,57.6 26.7,57.6 C29.3,57.6 31.4,59.6 31.7,62.2 L21.7,62.2 L21.7,62.2 Z M31.8,65.1 L21.8,65.1 L21.8,63.5 L31.8,63.5 L31.8,65.1 L31.8,65.1 Z M31.8,50 C31.6,49.8 31.4,49.5 31.2,49.3 L31.8,49.3 L31.8,50 L31.8,50 Z M21.2,26.3 L21.2,26.3 C27.9,26.3 33.4,20.8 33.4,14 C33.4,11.1 32.6,9.5 31.9,8.6 C31.9,8.6 31.8,8.5 31.7,8.3 L31.6,8.2 C30.7,7.3 27.8,5.3 21.2,5.3 L20.9,5.3 C18.9,5.3 12.4,5.5 10.4,8.6 C9.8,9.5 9,11.1 9,14 C9,20.8 14.5,26.3 21.2,26.3 L21.2,26.3 Z M11.2,9.2 L11.2,9.2 C13,6.4 19.6,6.3 21,6.3 L21.3,6.3 C27.8,6.3 30.4,8.4 31.1,9 L31.2,9.1 C31.3,9.2 31.4,9.3 31.4,9.3 C31.9,9.9 32.7,11.3 32.7,14.1 C32.7,20.4 27.6,25.6 21.4,25.6 L21.4,25.6 C15.2,25.6 10.1,20.5 10.1,14.1 C9.9,11.2 10.7,9.8 11.2,9.2 L11.2,9.2 Z M7,46.8 L8,45.8 C4.4,42.7 3,38.7 3.8,34.1 C4.2,31.9 4.9,30.2 5.5,29.1 C5.6,29 5.6,28.9 5.7,28.7 C6.7,26.7 8.3,25 10.2,23.6 C12.9,26.7 16.9,28.6 21.3,28.6 C25.6,28.6 29.6,26.7 32.2,23.8 C34,25.2 35.4,26.8 36.4,28.7 C36.5,28.8 36.5,29 36.6,29.1 C37.1,30.2 37.9,32 38.3,34.1 C39.1,38.7 37.6,42.7 34.1,45.8 L35.1,46.8 C42,40.8 39.9,33.2 38.3,29.4 L38.3,16 C38.3,14.9 37.4,14 36.3,14 L35.9,14 C35.7,6.3 29.2,0.1 21.3,0.1 C13.4,0.1 6.9,6.3 6.7,14 L6.3,14 C5.2,14 4.3,14.9 4.3,16 L4.3,28.5 C2.5,31.8 -0.5,40.3 7,46.8 L7,46.8 Z M36.2,15.3 C36.6,15.3 36.9,15.6 36.9,16 L36.9,27 C35.9,25.4 34.6,24 33,22.8 C34.6,20.7 35.6,18.1 35.8,15.4 L36.2,15.4 L36.2,15.3 Z M21.2,1.5 C28.5,1.5 34.4,7.3 34.4,14.4 C34.4,21.5 28.5,27.3 21.2,27.3 C13.9,27.3 8,21.5 8,14.4 C8,7.3 13.9,1.5 21.2,1.5 L21.2,1.5 Z M5.5,16 C5.5,15.6 5.8,15.3 6.2,15.3 L6.7,15.3 C6.9,18 7.8,20.4 9.3,22.5 C7.8,23.6 6.6,24.9 5.5,26.3 L5.5,16 L5.5,16 Z M32.9,44.9 L32.9,29 C32.9,28.4 32.5,27.9 31.9,27.9 L10,27.9 C9.5,27.9 9,28.4 9,29 L9,44.8 L5.8,44.8 L5.8,46.1 C5.8,46.7 6.2,47.2 6.8,47.2 L10,47.2 L32,47.2 L35.3,47.2 C35.8,47.2 36.3,46.7 36.3,46.1 L36.3,44.8 L32.9,44.8 L32.9,44.9 Z M21,39.1 C20,39.1 19.3,38.3 19.3,37.4 C19.3,36.4 20.1,35.7 21,35.7 C22,35.7 22.7,36.5 22.7,37.4 C22.7,38.3 22,39.1 21,39.1 L21,39.1 Z" id="Shape" sketch:type="MSShapeGroup"></path>
        </g>
    </g>
</svg>