<?xml version="1.0" encoding="utf-8"?>
<!-- Generator: Adobe Illustrator 18.1.0, SVG Export Plug-In . SVG Version: 6.00 Build 0)  -->
<svg version="1.1" id="Layer_1" xmlns="http://www.w3.org/2000/svg" xmlns:xlink="http://www.w3.org/1999/xlink" x="0px" y="0px"
	 viewBox="-463 265 32 32" enable-background="new -463 265 32 32" xml:space="preserve">
<path fill="#59D8E5" d="M-447,265c-8.8,0-16,7.2-16,16s7.2,16,16,16s16-7.2,16-16S-438.2,265-447,265z M-439,276.9
	c0,0.2,0,0.4,0,0.5c0,5.4-4.1,11.7-11.7,11.7c-2.3,0-4.5-0.7-6.3-1.8c0.3,0,0.6,0.1,1,0.1c1.9,0,3.7-0.7,5.1-1.8
	c-1.8,0-3.3-1.2-3.8-2.8c0.3,0,0.5,0.1,0.8,0.1c0.4,0,0.7,0,1.1-0.1c-1.9-0.4-3.3-2-3.3-4c0,0,0,0,0-0.1c0.6,0.3,1.2,0.5,1.9,0.5
	c-1.1-0.7-1.8-2-1.8-3.4c0-0.8,0.2-1.5,0.6-2.1c2,2.5,5,4.1,8.5,4.3c-0.1-0.3-0.1-0.6-0.1-0.9c0-2.3,1.8-4.1,4.1-4.1
	c1.2,0,2.2,0.5,3,1.3c0.9-0.2,1.8-0.5,2.6-1c-0.3,1-1,1.8-1.8,2.3c0.8-0.1,1.6-0.3,2.4-0.6C-437.5,275.6-438.2,276.3-439,276.9
	L-439,276.9z"/>
</svg>
