<?xml version="1.0" encoding="utf-8"?>
<!-- Generator: Adobe Illustrator 18.1.0, SVG Export Plug-In . SVG Version: 6.00 Build 0)  -->
<svg version="1.1" id="Layer_1" xmlns="http://www.w3.org/2000/svg" xmlns:xlink="http://www.w3.org/1999/xlink" x="0px" y="0px"
	 viewBox="352 0 1312 1280" enable-background="new 352 0 1312 1280" xml:space="preserve">
<path fill="#59D8E5" d="M1009,33c-334.4,0-608,273.6-608,608s273.6,608,608,608s608-273.6,608-608S1343.4,33,1009,33z M1313,485.2
	c0,7.6,0,15.2,0,19c0,205.2-155.8,444.6-444.6,444.6c-87.4,0-171-26.6-239.4-68.4c11.4,0,22.8,3.8,38,3.8
	c72.2,0,140.6-26.6,193.8-68.4c-68.4,0-125.4-45.6-144.4-106.4c11.4,0,19,3.8,30.4,3.8c15.2,0,26.6,0,41.8-3.8
	c-72.2-15.2-125.4-76-125.4-152c0,0,0,0,0-3.8c22.8,11.4,45.6,19,72.2,19c-41.8-26.6-68.4-76-68.4-129.2c0-30.4,7.6-57,22.8-79.8
	c76,95,190,155.8,323,163.4c-3.8-11.4-3.8-22.8-3.8-34.2c0-87.4,68.4-155.8,155.8-155.8c45.6,0,83.6,19,114,49.4
	c34.2-7.6,68.4-19,98.8-38c-11.4,38-38,68.4-68.4,87.4c30.4-3.8,60.8-11.4,91.2-22.8C1370,435.8,1343.4,462.4,1313,485.2L1313,485.2
	z"/>
</svg>
