<?xml version="1.0" encoding="utf-8"?>
<!-- Generator: Adobe Illustrator 18.1.0, SVG Export Plug-In . SVG Version: 6.00 Build 0)  -->
<svg version="1.1" id="Layer_1" xmlns="http://www.w3.org/2000/svg" xmlns:xlink="http://www.w3.org/1999/xlink" x="0px" y="0px"
	 viewBox="416 76 1096 1088" enable-background="new 416 76 1096 1088" xml:space="preserve">
<path fill="#59D8E5" d="M1205,346.9c-6,9-60.2,81.3-189.8,129.5C955,368,891.7,277.6,879.6,265.5c27.1-6,54.2-9,84.3-9
	C1057.4,256.5,1141.7,289.7,1205,346.9L1205,346.9z M991.1,618c-186.8,60.2-283.2,222.9-292.2,238c-57.2-63.3-93.4-147.6-93.4-241
	c0-3,0-6,0-12c15.1,0,189.8,3,370.5-51.2c9,21.1,21.1,39.2,30.1,60.2C1000.1,615,997.1,618,991.1,618L991.1,618z M967,133
	c-265.1,0-482,216.9-482,482s216.9,482,482,482s482-216.9,482-482S1232.1,133,967,133z M967,1036.8c-232,0-421.8-189.8-421.8-421.8
	S735,193.2,967,193.2S1388.8,383,1388.8,615S1199,1036.8,967,1036.8z M1069.4,581.9c-6-18.1-15.1-36.2-24.1-51.2
	c132.5-54.2,192.8-132.5,201.8-141.6c51.2,60.2,81.3,138.6,81.3,222.9c-12-3-129.5-27.1-250-12
	C1072.4,593.9,1072.4,587.9,1069.4,581.9L1069.4,581.9z M948.9,497.5c-168.7,45.2-316.3,45.2-334.4,45.2
	c24.1-111.5,99.4-204.8,198.8-253C822.4,301.7,888.7,392.1,948.9,497.5L948.9,497.5z M1027.2,675.2
	C1030.3,675.2,1030.3,675.2,1027.2,675.2c54.2,129.5,75.3,241,78.3,271.1c-42.2,18.1-90.4,30.1-141.6,30.1
	c-84.3,0-159.7-27.1-219.9-75.3C753.1,886.1,825.4,744.5,1027.2,675.2L1027.2,675.2z M1099.5,657.2c111.5-18.1,210.9,12,222.9,15.1
	c-15.1,99.4-72.3,186.8-153.6,241C1165.8,892.2,1144.7,786.7,1099.5,657.2z"/>
</svg>
