<?xml version="1.0" encoding="utf-8"?>
<!-- Generator: Adobe Illustrator 18.1.0, SVG Export Plug-In . SVG Version: 6.00 Build 0)  -->
<svg version="1.1" id="Layer_1" xmlns="http://www.w3.org/2000/svg" xmlns:xlink="http://www.w3.org/1999/xlink" x="0px" y="0px"
	 viewBox="-463 265 32 32" enable-background="new -463 265 32 32" xml:space="preserve">
<path fill="#59D8E5" d="M-439.1,272.1c-0.2,0.3-2,2.7-6.3,4.3c-2-3.6-4.1-6.6-4.5-7c0.9-0.2,1.8-0.3,2.8-0.3
	C-444,269.1-441.2,270.2-439.1,272.1L-439.1,272.1z M-446.2,281.1c-6.2,2-9.4,7.4-9.7,7.9c-1.9-2.1-3.1-4.9-3.1-8c0-0.1,0-0.2,0-0.4
	c0.5,0,6.3,0.1,12.3-1.7c0.3,0.7,0.7,1.3,1,2C-445.9,281-446,281.1-446.2,281.1L-446.2,281.1z M-447,265c-8.8,0-16,7.2-16,16
	s7.2,16,16,16s16-7.2,16-16S-438.2,265-447,265z M-447,295c-7.7,0-14-6.3-14-14s6.3-14,14-14s14,6.3,14,14S-439.3,295-447,295z
	 M-443.6,279.9c-0.2-0.6-0.5-1.2-0.8-1.7c4.4-1.8,6.4-4.4,6.7-4.7c1.7,2,2.7,4.6,2.7,7.4c-0.4-0.1-4.3-0.9-8.3-0.4
	C-443.5,280.3-443.5,280.1-443.6,279.9L-443.6,279.9z M-447.6,277.1c-5.6,1.5-10.5,1.5-11.1,1.5c0.8-3.7,3.3-6.8,6.6-8.4
	C-451.8,270.6-449.6,273.6-447.6,277.1L-447.6,277.1z M-445,283C-444.9,283-444.9,283-445,283c1.8,4.3,2.5,8,2.6,9
	c-1.4,0.6-3,1-4.7,1c-2.8,0-5.3-0.9-7.3-2.5C-454.1,290-451.7,285.3-445,283L-445,283z M-442.6,282.4c3.7-0.6,7,0.4,7.4,0.5
	c-0.5,3.3-2.4,6.2-5.1,8C-440.4,290.2-441.1,286.7-442.6,282.4z"/>
</svg>
