<?xml version="1.0" encoding="utf-8"?>
<!-- Generator: Adobe Illustrator 18.1.0, SVG Export Plug-In . SVG Version: 6.00 Build 0)  -->
<svg version="1.1" id="Layer_1" xmlns="http://www.w3.org/2000/svg" xmlns:xlink="http://www.w3.org/1999/xlink" x="0px" y="0px"
	 viewBox="408 36 1180 1172" enable-background="new 408 36 1180 1172" xml:space="preserve">
<path fill="#59D8E5" d="M993,108c-282.7,0-514,231.3-514,514s231.3,514,514,514s514-231.3,514-514S1275.7,108,993,108z
	 M1298.2,927.2c-38.6,38.6-86.7,70.7-138.1,93.2c-12.8,6.4-25.7,9.6-38.6,16.1v-77.1c0-41.8-12.8-70.7-41.8-89.9
	c16.1-3.2,32.1-3.2,48.2-6.4s28.9-6.4,45-12.8c16.1-6.4,32.1-12.8,45-19.3s25.7-19.3,38.6-32.1c12.8-12.8,22.5-25.7,28.9-41.8
	c6.4-16.1,12.8-35.3,19.3-57.8c3.2-22.5,6.4-48.2,6.4-73.9c0-51.4-16.1-96.4-51.4-131.7c16.1-38.6,12.8-83.5-6.4-131.7h-12.8
	c-9.6,0-25.7,3.2-48.2,9.6c-22.5,9.6-48.2,22.5-77.1,41.8c-38.6-9.6-80.3-16.1-125.3-16.1c-41.8,0-83.5,6.4-122.1,16.1
	c-19.3-12.8-35.3-22.5-51.4-28.9c-16.1-6.4-28.9-12.8-38.6-16.1c-9.6-3.2-19.3-3.2-25.7-6.4c-6.4-3.2-12.8,0-16.1,0s-3.2,0-6.4,0
	c-19.3,48.2-19.3,89.9-6.4,131.7c-35.3,35.3-51.4,80.3-51.4,131.7c0,25.7,3.2,51.4,6.4,73.9c3.2,22.5,9.6,41.8,19.3,57.8
	c9.6,16.1,19.3,28.9,28.9,41.8c12.8,12.8,25.7,22.5,38.6,32.1s28.9,16.1,45,19.3s32.1,9.6,45,12.8c16.1,3.2,32.1,6.4,48.2,6.4
	c-28.9,19.3-41.8,48.2-41.8,89.9v77.1c-16.1-3.2-28.9-9.6-45-16.1c-51.4-22.5-96.4-51.4-138.1-93.2c-38.6-38.6-70.7-86.7-93.2-138.1
	c-22.5-54.6-35.3-109.2-35.3-167.1c0-57.8,12.8-115.7,35.3-167.1c22.5-51.4,51.4-96.4,93.2-138.1c38.6-38.6,86.7-70.7,138.1-93.2
	c54.6-22.5,109.2-35.3,167.1-35.3c57.8,0,115.7,12.8,167.1,35.3c51.4,22.5,96.4,51.4,138.1,93.2c38.6,38.6,70.7,86.7,93.2,138.1
	c22.5,54.6,35.3,109.2,35.3,167.1s-12.8,115.7-35.3,167.1C1368.9,840.4,1336.7,888.6,1298.2,927.2L1298.2,927.2z"/>
</svg>
