<?xml version="1.0" encoding="utf-8"?>
<!-- Generator: Adobe Illustrator 18.1.0, SVG Export Plug-In . SVG Version: 6.00 Build 0)  -->
<svg version="1.1" id="Layer_1" xmlns="http://www.w3.org/2000/svg" xmlns:xlink="http://www.w3.org/1999/xlink" x="0px" y="0px"
	 viewBox="336 0 1164 1176" enable-background="new 336 0 1164 1176" xml:space="preserve">
<g id="Layer_2" display="none">
	<rect x="18" display="inline" stroke="#FFFFFF" stroke-width="7" stroke-miterlimit="10" width="1963.9" height="1280"/>
</g>
<g id="Layer_1_1_">
	<text transform="matrix(1 0 0 1 424.7954 674.233)" fill="#6ACBDB" font-family="'MavenProBold'" font-size="347.8261"> </text>
	<path fill="#59D8E5" d="M842.4,390v215.2L778,669.6L799.8,820c0,0,49.1-87.4,98.3-118.3l31.3,247.4l31.3-251.7
		c65.2,25.7,97.8,123,97.8,123l21.7-150.4l-64.3-64.3V390.4l-86.1-129.1L842.4,390z"/>
	<g>
		<path fill="#FFFFFF" d="M1435.4,591.7c0,0,0,3,0,9.1c-0.4,6.1,0,14.8-0.9,26.1c-1.3,22.6-5.2,56.1-16.1,97.4
			c-1.3,5.2-3,10.4-4.3,15.7c-1.7,5.2-3.5,10.9-5.2,16.5c-1.7,5.7-3.9,11.3-6.1,17c-2.2,5.7-4.3,11.7-7,17.4
			c-10,23.9-22.6,48.7-38.3,73.9c-16.1,25.2-34.8,50.9-57.8,75.7c-23,24.8-49.1,49.1-79.1,70.9c-30.4,21.7-63.9,41.3-101.3,57
			c-37.4,16.1-77.8,27.8-120.9,34.8c-5.2,0.9-10.9,1.7-16.1,2.2c-5.7,0.4-10.9,1.3-16.5,1.7c-5.7,0.4-10.9,0.9-16.5,1.3l-8.3,0.4
			h-8.7c-5.2,0-10.9,0-16.1,0.4c-5.7,0-11.3-0.4-17.4-0.4c-11.7,0-23-1.3-34.8-2.2c-23-2.6-46.1-6.1-69.1-11.7
			c-11.7-2.6-23-6.1-34.3-9.6c-5.7-1.7-11.3-3.9-17-6.1l-8.7-3l-8.3-3.5c-22.6-8.7-44.8-19.6-66.1-31.7c-5.2-3-10.4-6.5-16.1-9.6
			c-5.2-3.5-10.4-7-15.7-10.4c-5.2-3.5-10.4-7-15.2-10.9c-5.2-3.9-10.4-7.4-15.2-11.3c-39.6-31.3-75.2-68.7-104.8-111.3
			c-14.8-21.3-27.8-43.9-39.6-67.4c-11.7-23.5-20.9-48.3-29.1-73c-8.3-25.2-13.9-50.9-17.8-77c-3.9-26.1-5.7-52.6-6.1-79.1l0.4-19.6
			c0-3,0-5.7,0.4-9.6l0.9-10.4c0.4-7,0.9-13.9,1.7-20.4l2.6-19.6c4.3-26.1,9.6-52.2,17.8-77c8.3-25.2,17.4-49.6,29.1-73
			c11.7-23.5,24.8-46.1,39.6-67.4c29.6-42.6,65.2-80,104.8-111.3c39.6-30.9,83-56.1,128.3-73.9l8.3-3.5l8.7-3
			c5.7-2.2,11.3-3.9,17-6.1c11.7-3.5,23-7,34.3-9.6c23-5.7,46.1-9.1,69.1-11.7c11.7-0.9,23-2.2,34.3-2.2c5.7,0,11.3-0.4,17-0.4
			c5.7,0,11.3,0,17,0.4h8.7l7.8,0.4c5.2,0.4,10.4,0.9,16.1,1.3c5.7,0.4,11.3,1.3,16.5,1.7c5.7,0.9,11.3,1.3,16.5,2.2
			c43,7,83.9,18.7,120.9,34.8c37.4,15.7,71.3,35.7,101.3,57c30.4,21.7,56.5,46.1,79.1,70.9s41.7,50.4,57.8,75.7
			c16.1,25.2,28.3,50.4,38.3,73.9c2.6,5.7,4.8,11.7,7,17.4c2.2,5.7,4.3,11.3,6.1,17s3.5,11.3,5.2,16.5c1.3,5.2,3,10.9,4.3,15.7
			c10.9,41.3,14.8,74.8,16.1,97.4c0.9,11.3,0.9,20,0.9,26.1C1435.4,588.7,1435.4,591.7,1435.4,591.7z M1435.4,591.7c0,0,0-3-0.4-9.1
			s0-14.8-1.3-26.1c-1.7-22.6-5.2-56.1-17.4-97c-11.7-40.9-31.3-89.1-65.2-137.8c-16.5-24.3-37-48.3-60.4-71.3
			c-23.5-23-50.9-44.3-81.3-63.5c-30.4-18.7-64.3-34.8-100.9-46.5c-36.5-12.2-75.2-19.1-115.7-22.2c-5.2-0.4-10-0.4-14.8-0.9
			c-4.8,0-10-0.4-14.8-0.4c-5.2,0-10.4,0-16.1,0.4h-7.8l-7,0.4c-5.2,0.4-10.4,0.9-15.2,1.3c-5.2,0.4-10.4,1.3-15.2,1.7
			c-10.4,0.9-20.4,3-30.9,4.8c-20.4,4.3-40.9,9.1-60.9,16.1c-10,3-20,7.4-30,11.3c-4.8,2.2-9.6,4.3-14.8,6.5l-7.4,3l-7,3.5
			c-76.5,37.8-144.3,98.3-191.3,173c-23.5,37.4-41.7,77.8-54.3,120.4l-4.3,16.1c-1.3,5.2-2.2,10.9-3.5,16.1l-1.7,8.3l-1.3,8.3
			c-0.9,5.7-2.2,10.9-2.6,16.5l-2.2,16.5c-0.9,5.7-0.9,10.4-1.3,16.1l-0.4,7.8c-0.4,2.6,0,6.1-0.4,8.7v9.1v4.3v2.2v1.3
			c0,0,0,1.7,0,0c0,22.2,1.3,44.3,4.8,66.5c0.9,5.7,1.7,10.9,2.6,16.5l1.3,8.3l1.7,8.3c1.3,5.2,2.2,10.9,3.5,16.1l4.3,16.1
			c12.6,42.6,30.9,83,54.3,120.4c47,74.8,114.8,135.2,191.3,173l7,3.5l7.4,3c4.8,2.2,9.6,4.3,14.8,6.5c10,3.9,19.6,7.8,30,11.3
			c20,7,40.4,12.2,60.9,16.1c10.4,1.7,20.4,3.9,30.4,4.8c5.2,0.4,10,1.3,15.2,1.7c5.2,0.4,10.9,0.9,16.1,1.3l7.4,0.4h7.8
			c5.2,0,10.4,0.4,15.2,0.4c5.2,0,10-0.4,15.2-0.4c5.2,0,10,0,15.2-0.9c40-3,79.1-10,115.7-22.2s70.4-27.8,100.9-47
			c30.4-18.7,57.8-40.4,81.3-63.5c23.5-23,43.9-47,60.4-71.3c33.9-48.7,53.5-97,65.2-137.8c11.7-40.9,15.7-74.3,17.4-97
			c1.3-11.3,0.9-20,1.3-26.1C1435,594.8,1435.4,591.7,1435.4,591.7z"/>
	</g>
</g>
</svg>
