<svg xmlns="http://www.w3.org/2000/svg" width="1920" height="1080"><path d="M1119,1320L832,1361L1316,1327Z" fill="#2c6294" stroke="#2c6294" stroke-width="1.51"/><path d="M443,-267L907,-235L1367,-238Z" fill="#afdbc8" stroke="#afdbc8" stroke-width="1.51"/><path d="M907,-235L1073,-221L1367,-238Z" fill="#a6cfc7" stroke="#a6cfc7" stroke-width="1.51"/><path d="M1367,-238L1637,-219L1823,-230Z" fill="#9ca8ba" stroke="#9ca8ba" stroke-width="1.51"/><path d="M1316,1327L832,1361L1832,1347Z" fill="#1e548f" stroke="#1e548f" stroke-width="1.51"/><path d="M1367,-238L1823,-230L1998,-235Z" fill="#9ca0b8" stroke="#9ca0b8" stroke-width="1.51"/><path d="M443,-267L1367,-238L1998,-235Z" fill="#a2c6c8" stroke="#a2c6c8" stroke-width="1.51"/><path d="M1919,1307L1832,1347L2085,1260Z" fill="#1b2c7e" stroke="#1b2c7e" stroke-width="1.51"/><path d="M1983,433L1974,566L2153,394Z" fill="#45729f" stroke="#45729f" stroke-width="1.51"/><path d="M2125,1007L2147,1105L2153,851Z" fill="#1b3e87" stroke="#1b3e87" stroke-width="1.51"/><path d="M2150,-77L2005,54L2172,168Z" fill="#7e8393" stroke="#7e8393" stroke-width="1.51"/><path d="M2140,218L2153,394L2172,168Z" fill="#5d7791" stroke="#5d7791" stroke-width="1.51"/><path d="M2153,394L1974,566L2189,598Z" fill="#386c99" stroke="#386c99" stroke-width="1.51"/><path d="M1996,817L2153,851L2189,598Z" fill="#215996" stroke="#215996" stroke-width="1.51"/><path d="M1974,566L1996,817L2189,598Z" fill="#2e649e" stroke="#2e649e" stroke-width="1.51"/><path d="M2153,851L2147,1105L2189,598Z" fill="#1d4c8c" stroke="#1d4c8c" stroke-width="1.51"/><path d="M2172,168L2153,394L2189,598Z" fill="#486f91" stroke="#486f91" stroke-width="1.51"/><path d="M1998,-119L2150,-77L2201,-183Z" fill="#8c8794" stroke="#8c8794" stroke-width="1.51"/><path d="M1998,-235L1998,-119L2201,-183Z" fill="#908a9e" stroke="#908a9e" stroke-width="1.51"/><path d="M2150,-77L2172,168L2201,-183Z" fill="#81828c" stroke="#81828c" stroke-width="1.51"/><path d="M2172,168L2189,598L2201,-183Z" fill="#66788d" stroke="#66788d" stroke-width="1.51"/><path d="M2140,218L1941,245L2153,394Z" fill="#5d7898" stroke="#5d7898" stroke-width="1.51"/><path d="M1941,245L1983,433L2153,394Z" fill="#54779e" stroke="#54779e" stroke-width="1.51"/><path d="M1996,817L2125,1007L2153,851Z" fill="#1f4a91" stroke="#1f4a91" stroke-width="1.51"/><path d="M2005,54L2140,218L2172,168Z" fill="#737f94" stroke="#737f94" stroke-width="1.51"/><path d="M1996,817L1936,897L2125,1007Z" fill="#234c97" stroke="#234c97" stroke-width="1.51"/><path d="M1987,1164L2085,1260L2147,1105Z" fill="#1e2e85" stroke="#1e2e85" stroke-width="1.51"/><path d="M1998,-119L2005,54L2150,-77Z" fill="#8a8899" stroke="#8a8899" stroke-width="1.51"/><path d="M2005,54L1941,245L2140,218Z" fill="#73819c" stroke="#73819c" stroke-width="1.51"/><path d="M2125,1007L1987,1164L2147,1105Z" fill="#1e3687" stroke="#1e3687" stroke-width="1.51"/><path d="M1936,897L1987,1164L2125,1007Z" fill="#214092" stroke="#214092" stroke-width="1.51"/><path d="M1936,897L1861,931L1987,1164Z" fill="#26469b" stroke="#26469b" stroke-width="1.51"/><path d="M1987,1164L1919,1307L2085,1260Z" fill="#1d2d82" stroke="#1d2d82" stroke-width="1.51"/><path d="M1419,1283L1316,1327L1832,1347Z" fill="#1d468c" stroke="#1d468c" stroke-width="1.51"/><path d="M1941,245L1753,333L1983,433Z" fill="#5c7faa" stroke="#5c7faa" stroke-width="1.51"/><path d="M1861,931L1776,1178L1987,1164Z" fill="#26409a" stroke="#26409a" stroke-width="1.51"/><path d="M1858,588L1776,821L1996,817Z" fill="#2d66ab" stroke="#2d66ab" stroke-width="1.51"/><path d="M1974,566L1858,588L1996,817Z" fill="#3469a9" stroke="#3469a9" stroke-width="1.51"/><path d="M1823,-230L1843,-79L1998,-119Z" fill="#9892ab" stroke="#9892ab" stroke-width="1.51"/><path d="M1823,-230L1998,-119L1998,-235Z" fill="#9890ac" stroke="#9890ac" stroke-width="1.51"/><path d="M1835,109L1941,245L2005,54Z" fill="#7f88a6" stroke="#7f88a6" stroke-width="1.51"/><path d="M1998,-119L1843,-79L2005,54Z" fill="#908da3" stroke="#908da3" stroke-width="1.51"/><path d="M1843,-79L1835,109L2005,54Z" fill="#8b8ea7" stroke="#8b8ea7" stroke-width="1.51"/><path d="M1858,588L1974,566L1983,433Z" fill="#3f73aa" stroke="#3f73aa" stroke-width="1.51"/><path d="M1776,821L1936,897L1996,817Z" fill="#2a58a6" stroke="#2a58a6" stroke-width="1.51"/><path d="M1753,333L1742,409L1983,433Z" fill="#5581ad" stroke="#5581ad" stroke-width="1.51"/><path d="M1776,1178L1919,1307L1987,1164Z" fill="#22338f" stroke="#22338f" stroke-width="1.51"/><path d="M1742,409L1858,588L1983,433Z" fill="#497aad" stroke="#497aad" stroke-width="1.51"/><path d="M1661,1257L1419,1283L1832,1347Z" fill="#1e408c" stroke="#1e408c" stroke-width="1.51"/><path d="M1776,821L1861,931L1936,897Z" fill="#2857a5" stroke="#2857a5" stroke-width="1.51"/><path d="M1835,109L1753,333L1941,245Z" fill="#7088aa" stroke="#7088aa" stroke-width="1.51"/><path d="M1776,1178L1832,1347L1919,1307Z" fill="#1f3388" stroke="#1f3388" stroke-width="1.51"/><path d="M1367,-238L1417,-220L1637,-219Z" fill="#9eb4bf" stroke="#9eb4bf" stroke-width="1.51"/><path d="M1655,256L1753,333L1835,109Z" fill="#6f8ead" stroke="#6f8ead" stroke-width="1.51"/><path d="M1660,137L1655,256L1835,109Z" fill="#7b94ad" stroke="#7b94ad" stroke-width="1.51"/><path d="M1698,-25L1835,109L1843,-79Z" fill="#8f96aa" stroke="#8f96aa" stroke-width="1.51"/><path d="M1619,587L1776,821L1858,588Z" fill="#3174b0" stroke="#3174b0" stroke-width="1.51"/><path d="M1742,409L1619,587L1858,588Z" fill="#3e80b2" stroke="#3e80b2" stroke-width="1.51"/><path d="M1594,991L1776,1178L1861,931Z" fill="#264ea1" stroke="#264ea1" stroke-width="1.51"/><path d="M1776,821L1594,991L1861,931Z" fill="#265aa7" stroke="#265aa7" stroke-width="1.51"/><path d="M1637,-219L1698,-25L1823,-230Z" fill="#9a9fb1" stroke="#9a9fb1" stroke-width="1.51"/><path d="M1776,1178L1661,1257L1832,1347Z" fill="#203a8d" stroke="#203a8d" stroke-width="1.51"/><path d="M1823,-230L1698,-25L1843,-79Z" fill="#9899ab" stroke="#9899ab" stroke-width="1.51"/><path d="M1698,-25L1660,137L1835,109Z" fill="#8898ac" stroke="#8898ac" stroke-width="1.51"/><path d="M1594,991L1576,1129L1776,1178Z" fill="#254ea0" stroke="#254ea0" stroke-width="1.51"/><path d="M1689,403L1619,587L1742,409Z" fill="#4887b3" stroke="#4887b3" stroke-width="1.51"/><path d="M1619,587L1572,854L1776,821Z" fill="#2573b2" stroke="#2573b2" stroke-width="1.51"/><path d="M1572,854L1594,991L1776,821Z" fill="#2464ab" stroke="#2464ab" stroke-width="1.51"/><path d="M1576,1129L1661,1257L1776,1178Z" fill="#25449a" stroke="#25449a" stroke-width="1.51"/><path d="M1689,403L1742,409L1753,333Z" fill="#5588af" stroke="#5588af" stroke-width="1.51"/><path d="M1655,256L1689,403L1753,333Z" fill="#5b8db0" stroke="#5b8db0" stroke-width="1.51"/><path d="M1526,599L1572,854L1619,587Z" fill="#2b7fb6" stroke="#2b7fb6" stroke-width="1.51"/><path d="M1536,464L1619,587L1689,403Z" fill="#438bb5" stroke="#438bb5" stroke-width="1.51"/><path d="M1655,256L1491,313L1689,403Z" fill="#5c93b2" stroke="#5c93b2" stroke-width="1.51"/><path d="M1487,-96L1660,137L1698,-25Z" fill="#8fa3af" stroke="#8fa3af" stroke-width="1.51"/><path d="M1637,-219L1487,-96L1698,-25Z" fill="#98a7b0" stroke="#98a7b0" stroke-width="1.51"/><path d="M1487,-96L1461,157L1660,137Z" fill="#89a7b2" stroke="#89a7b2" stroke-width="1.51"/><path d="M1491,313L1536,464L1689,403Z" fill="#5193b5" stroke="#5193b5" stroke-width="1.51"/><path d="M1461,157L1655,256L1660,137Z" fill="#789db1" stroke="#789db1" stroke-width="1.51"/><path d="M1576,1129L1419,1283L1661,1257Z" fill="#244a99" stroke="#244a99" stroke-width="1.51"/><path d="M1461,157L1491,313L1655,256Z" fill="#6d9eb4" stroke="#6d9eb4" stroke-width="1.51"/><path d="M1526,599L1441,862L1572,854Z" fill="#237bb6" stroke="#237bb6" stroke-width="1.51"/><path d="M1536,464L1526,599L1619,587Z" fill="#378bb8" stroke="#378bb8" stroke-width="1.51"/><path d="M1417,-220L1487,-96L1637,-219Z" fill="#9cb0b9" stroke="#9cb0b9" stroke-width="1.51"/><path d="M1494,990L1576,1129L1594,991Z" fill="#255aa6" stroke="#255aa6" stroke-width="1.51"/><path d="M1572,854L1494,990L1594,991Z" fill="#2364ab" stroke="#2364ab" stroke-width="1.51"/><path d="M1403,1152L1419,1283L1576,1129Z" fill="#2853a1" stroke="#2853a1" stroke-width="1.51"/><path d="M1283,688L1441,862L1526,599Z" fill="#2589bc" stroke="#2589bc" stroke-width="1.51"/><path d="M1441,862L1494,990L1572,854Z" fill="#236daf" stroke="#236daf" stroke-width="1.51"/><path d="M1494,990L1403,1152L1576,1129Z" fill="#275aa6" stroke="#275aa6" stroke-width="1.51"/><path d="M1338,131L1461,157L1487,-96Z" fill="#8bb1b6" stroke="#8bb1b6" stroke-width="1.51"/><path d="M1266,-18L1338,131L1487,-96Z" fill="#92b8b8" stroke="#92b8b8" stroke-width="1.51"/><path d="M1303,457L1526,599L1536,464Z" fill="#3d97bb" stroke="#3d97bb" stroke-width="1.51"/><path d="M1491,313L1303,457L1536,464Z" fill="#4e9cba" stroke="#4e9cba" stroke-width="1.51"/><path d="M1303,457L1283,688L1526,599Z" fill="#3298be" stroke="#3298be" stroke-width="1.51"/><path d="M1461,157L1338,131L1491,313Z" fill="#76aab7" stroke="#76aab7" stroke-width="1.51"/><path d="M1338,131L1247,332L1491,313Z" fill="#6aacba" stroke="#6aacba" stroke-width="1.51"/><path d="M1247,332L1303,457L1491,313Z" fill="#55a7bc" stroke="#55a7bc" stroke-width="1.51"/><path d="M1441,862L1269,942L1494,990Z" fill="#2371b2" stroke="#2371b2" stroke-width="1.51"/><path d="M1269,942L1403,1152L1494,990Z" fill="#2668ad" stroke="#2668ad" stroke-width="1.51"/><path d="M1417,-220L1266,-18L1487,-96Z" fill="#9cb9b8" stroke="#9cb9b8" stroke-width="1.51"/><path d="M513,1329L317,1367L832,1361Z" fill="#5a758e" stroke="#5a758e" stroke-width="1.51"/><path d="M443,-267L649,-216L907,-235Z" fill="#bde4c4" stroke="#bde4c4" stroke-width="1.51"/><path d="M1367,-238L1266,-18L1417,-220Z" fill="#9ebdbe" stroke="#9ebdbe" stroke-width="1.51"/><path d="M1283,688L1250,830L1441,862Z" fill="#2088bc" stroke="#2088bc" stroke-width="1.51"/><path d="M1250,830L1269,942L1441,862Z" fill="#227eb8" stroke="#227eb8" stroke-width="1.51"/><path d="M1269,942L1246,1178L1403,1152Z" fill="#2969ad" stroke="#2969ad" stroke-width="1.51"/><path d="M1403,1152L1246,1178L1419,1283Z" fill="#285aa3" stroke="#285aa3" stroke-width="1.51"/><path d="M1246,1178L1316,1327L1419,1283Z" fill="#25599b" stroke="#25599b" stroke-width="1.51"/><path d="M1177,589L1283,688L1303,457Z" fill="#31a1c2" stroke="#31a1c2" stroke-width="1.51"/><path d="M1073,-221L1266,-18L1367,-238Z" fill="#a0c7c1" stroke="#a0c7c1" stroke-width="1.51"/><path d="M1266,-18L1172,62L1338,131Z" fill="#8dbfbb" stroke="#8dbfbb" stroke-width="1.51"/><path d="M1172,62L1247,332L1338,131Z" fill="#7cb9bc" stroke="#7cb9bc" stroke-width="1.51"/><path d="M1172,62L1167,339L1247,332Z" fill="#70b9bd" stroke="#70b9bd" stroke-width="1.51"/><path d="M1073,-221L1079,-47L1266,-18Z" fill="#a1cbbb" stroke="#a1cbbb" stroke-width="1.51"/><path d="M1094,967L1246,1178L1269,942Z" fill="#2c75b2" stroke="#2c75b2" stroke-width="1.51"/><path d="M1148,486L1177,589L1303,457Z" fill="#3da9c2" stroke="#3da9c2" stroke-width="1.51"/><path d="M1246,1178L1119,1320L1316,1327Z" fill="#285f9c" stroke="#285f9c" stroke-width="1.51"/><path d="M1094,967L1125,1191L1246,1178Z" fill="#326fae" stroke="#326fae" stroke-width="1.51"/><path d="M1167,339L1148,486L1247,332Z" fill="#55b1c0" stroke="#55b1c0" stroke-width="1.51"/><path d="M1247,332L1148,486L1303,457Z" fill="#4dacc0" stroke="#4dacc0" stroke-width="1.51"/><path d="M1023,169L1167,339L1172,62Z" fill="#7dc0bd" stroke="#7dc0bd" stroke-width="1.51"/><path d="M1125,1191L1119,1320L1246,1178Z" fill="#2f65a3" stroke="#2f65a3" stroke-width="1.51"/><path d="M1082,849L1250,830L1283,688Z" fill="#2590bf" stroke="#2590bf" stroke-width="1.51"/><path d="M1177,589L1082,849L1283,688Z" fill="#2a9ac1" stroke="#2a9ac1" stroke-width="1.51"/><path d="M1082,849L1094,967L1250,830Z" fill="#2c89ba" stroke="#2c89ba" stroke-width="1.51"/><path d="M1250,830L1094,967L1269,942Z" fill="#2881b8" stroke="#2881b8" stroke-width="1.51"/><path d="M1079,-47L1172,62L1266,-18Z" fill="#96c6bb" stroke="#96c6bb" stroke-width="1.51"/><path d="M892,403L1148,486L1167,339Z" fill="#55b6c1" stroke="#55b6c1" stroke-width="1.51"/><path d="M1148,486L927,568L1177,589Z" fill="#3baec4" stroke="#3baec4" stroke-width="1.51"/><path d="M927,568L1082,849L1177,589Z" fill="#34a4c3" stroke="#34a4c3" stroke-width="1.51"/><path d="M1023,169L906,296L1167,339Z" fill="#70c1be" stroke="#70c1be" stroke-width="1.51"/><path d="M1079,-47L1023,169L1172,62Z" fill="#92c9bc" stroke="#92c9bc" stroke-width="1.51"/><path d="M927,568L937,852L1082,849Z" fill="#31a1c2" stroke="#31a1c2" stroke-width="1.51"/><path d="M1094,967L903,1140L1125,1191Z" fill="#3877af" stroke="#3877af" stroke-width="1.51"/><path d="M906,296L892,403L1167,339Z" fill="#61bfc0" stroke="#61bfc0" stroke-width="1.51"/><path d="M1073,-221L1023,-55L1079,-47Z" fill="#a3d0bc" stroke="#a3d0bc" stroke-width="1.51"/><path d="M1023,-55L1023,169L1079,-47Z" fill="#97cdbc" stroke="#97cdbc" stroke-width="1.51"/><path d="M903,1140L995,1239L1125,1191Z" fill="#3b70aa" stroke="#3b70aa" stroke-width="1.51"/><path d="M995,1239L1119,1320L1125,1191Z" fill="#3368a1" stroke="#3368a1" stroke-width="1.51"/><path d="M892,403L927,568L1148,486Z" fill="#4bb7c3" stroke="#4bb7c3" stroke-width="1.51"/><path d="M927,568L837,757L937,852Z" fill="#3ea8c2" stroke="#3ea8c2" stroke-width="1.51"/><path d="M930,962L903,1140L1094,967Z" fill="#3982b4" stroke="#3982b4" stroke-width="1.51"/><path d="M995,1239L832,1361L1119,1320Z" fill="#336a99" stroke="#336a99" stroke-width="1.51"/><path d="M937,852L930,962L1082,849Z" fill="#3591bb" stroke="#3591bb" stroke-width="1.51"/><path d="M1082,849L930,962L1094,967Z" fill="#3389b8" stroke="#3389b8" stroke-width="1.51"/><path d="M907,-235L1023,-55L1073,-221Z" fill="#a7d5c2" stroke="#a7d5c2" stroke-width="1.51"/><path d="M840,171L1023,169L1023,-55Z" fill="#92d0bd" stroke="#92d0bd" stroke-width="1.51"/><path d="M-288,-283L-34,-210L443,-267Z" fill="#f2fabf" stroke="#f2fabf" stroke-width="1.51"/><path d="M840,171L906,296L1023,169Z" fill="#80cabd" stroke="#80cabd" stroke-width="1.51"/><path d="M831,-55L840,171L1023,-55Z" fill="#9ed5bb" stroke="#9ed5bb" stroke-width="1.51"/><path d="M907,-235L831,-55L1023,-55Z" fill="#a9d9bc" stroke="#a9d9bc" stroke-width="1.51"/><path d="M903,1140L832,1361L995,1239Z" fill="#3f71a2" stroke="#3f71a2" stroke-width="1.51"/><path d="M792,1139L832,1361L903,1140Z" fill="#4875a6" stroke="#4875a6" stroke-width="1.51"/><path d="M807,963L792,1139L903,1140Z" fill="#4a81b0" stroke="#4a81b0" stroke-width="1.51"/><path d="M649,-216L764,-167L907,-235Z" fill="#b5dfc2" stroke="#b5dfc2" stroke-width="1.51"/><path d="M764,-167L831,-55L907,-235Z" fill="#b0dcbf" stroke="#b0dcbf" stroke-width="1.51"/><path d="M892,403L777,590L927,568Z" fill="#51bac2" stroke="#51bac2" stroke-width="1.51"/><path d="M777,590L837,757L927,568Z" fill="#4ab1c2" stroke="#4ab1c2" stroke-width="1.51"/><path d="M807,963L903,1140L930,962Z" fill="#4486b3" stroke="#4486b3" stroke-width="1.51"/><path d="M807,963L930,962L937,852Z" fill="#4090b7" stroke="#4090b7" stroke-width="1.51"/><path d="M837,757L807,963L937,852Z" fill="#449abb" stroke="#449abb" stroke-width="1.51"/><path d="M745,416L777,590L892,403Z" fill="#5fbfc1" stroke="#5fbfc1" stroke-width="1.51"/><path d="M782,298L892,403L906,296Z" fill="#6dc4be" stroke="#6dc4be" stroke-width="1.51"/><path d="M840,171L782,298L906,296Z" fill="#7ecabd" stroke="#7ecabd" stroke-width="1.51"/><path d="M782,298L745,416L892,403Z" fill="#6cc4bf" stroke="#6cc4bf" stroke-width="1.51"/><path d="M792,1139L589,1239L832,1361Z" fill="#5076a0" stroke="#5076a0" stroke-width="1.51"/><path d="M777,590L669,674L837,757Z" fill="#52b1c0" stroke="#52b1c0" stroke-width="1.51"/><path d="M602,807L807,963L837,757Z" fill="#519fba" stroke="#519fba" stroke-width="1.51"/><path d="M831,-55L606,79L840,171Z" fill="#a2d8b9" stroke="#a2d8b9" stroke-width="1.51"/><path d="M606,79L782,298L840,171Z" fill="#93d3ba" stroke="#93d3ba" stroke-width="1.51"/><path d="M669,674L602,807L837,757Z" fill="#54adbf" stroke="#54adbf" stroke-width="1.51"/><path d="M606,1126L792,1139L807,963Z" fill="#5485af" stroke="#5485af" stroke-width="1.51"/><path d="M565,-38L606,79L831,-55Z" fill="#afdeb7" stroke="#afdeb7" stroke-width="1.51"/><path d="M589,1239L513,1329L832,1361Z" fill="#527495" stroke="#527495" stroke-width="1.51"/><path d="M764,-167L565,-38L831,-55Z" fill="#b4dfb8" stroke="#b4dfb8" stroke-width="1.51"/><path d="M606,79L628,325L782,298Z" fill="#8ed2ba" stroke="#8ed2ba" stroke-width="1.51"/><path d="M606,1126L589,1239L792,1139Z" fill="#5c7eaa" stroke="#5c7eaa" stroke-width="1.51"/><path d="M558,950L606,1126L807,963Z" fill="#5a8eb0" stroke="#5a8eb0" stroke-width="1.51"/><path d="M602,807L558,950L807,963Z" fill="#5a9bb6" stroke="#5a9bb6" stroke-width="1.51"/><path d="M745,416L557,434L777,590Z" fill="#68c2c0" stroke="#68c2c0" stroke-width="1.51"/><path d="M628,325L745,416L782,298Z" fill="#77c9bd" stroke="#77c9bd" stroke-width="1.51"/><path d="M649,-216L565,-38L764,-167Z" fill="#bae2bb" stroke="#bae2bb" stroke-width="1.51"/><path d="M557,434L669,674L777,590Z" fill="#61bec0" stroke="#61bec0" stroke-width="1.51"/><path d="M628,325L557,434L745,416Z" fill="#78c9bd" stroke="#78c9bd" stroke-width="1.51"/><path d="M-34,-210L81,-186L337,-217Z" fill="#eaf7bb" stroke="#eaf7bb" stroke-width="1.51"/><path d="M-34,-210L337,-217L443,-267Z" fill="#e4f4be" stroke="#e4f4be" stroke-width="1.51"/><path d="M606,79L389,238L628,325Z" fill="#a0d9b8" stroke="#a0d9b8" stroke-width="1.51"/><path d="M424,618L602,807L669,674Z" fill="#69b6be" stroke="#69b6be" stroke-width="1.51"/><path d="M557,434L424,618L669,674Z" fill="#71c2be" stroke="#71c2be" stroke-width="1.51"/><path d="M443,-267L565,-38L649,-216Z" fill="#c6e8bc" stroke="#c6e8bc" stroke-width="1.51"/><path d="M443,-267L428,-52L565,-38Z" fill="#cceab7" stroke="#cceab7" stroke-width="1.51"/><path d="M424,618L418,808L602,807Z" fill="#72b6bd" stroke="#72b6bd" stroke-width="1.51"/><path d="M398,67L389,238L606,79Z" fill="#b6e1b6" stroke="#b6e1b6" stroke-width="1.51"/><path d="M389,238L492,390L628,325Z" fill="#92d3ba" stroke="#92d3ba" stroke-width="1.51"/><path d="M492,390L557,434L628,325Z" fill="#83cdbb" stroke="#83cdbb" stroke-width="1.51"/><path d="M418,808L558,950L602,807Z" fill="#6ca6b7" stroke="#6ca6b7" stroke-width="1.51"/><path d="M413,1187L589,1239L606,1126Z" fill="#6a81a7" stroke="#6a81a7" stroke-width="1.51"/><path d="M558,950L413,1187L606,1126Z" fill="#6c8bac" stroke="#6c8bac" stroke-width="1.51"/><path d="M565,-38L398,67L606,79Z" fill="#b9e3b6" stroke="#b9e3b6" stroke-width="1.51"/><path d="M325,1086L413,1187L558,950Z" fill="#7790ac" stroke="#7790ac" stroke-width="1.51"/><path d="M413,1187L513,1329L589,1239Z" fill="#687e9c" stroke="#687e9c" stroke-width="1.51"/><path d="M492,390L424,618L557,434Z" fill="#81cbbd" stroke="#81cbbd" stroke-width="1.51"/><path d="M390,906L325,1086L558,950Z" fill="#789bb0" stroke="#789bb0" stroke-width="1.51"/><path d="M418,808L390,906L558,950Z" fill="#75a4b5" stroke="#75a4b5" stroke-width="1.51"/><path d="M428,-52L398,67L565,-38Z" fill="#c4e7b5" stroke="#c4e7b5" stroke-width="1.51"/><path d="M337,-217L428,-52L443,-267Z" fill="#d5efbb" stroke="#d5efbb" stroke-width="1.51"/><path d="M299,522L424,618L492,390Z" fill="#89cdbd" stroke="#89cdbd" stroke-width="1.51"/><path d="M413,1187L317,1367L513,1329Z" fill="#6f7e95" stroke="#6f7e95" stroke-width="1.51"/><path d="M332,668L418,808L424,618Z" fill="#81bebc" stroke="#81bebc" stroke-width="1.51"/><path d="M389,238L299,522L492,390Z" fill="#97d5ba" stroke="#97d5ba" stroke-width="1.51"/><path d="M234,218L299,522L389,238Z" fill="#a7dbb8" stroke="#a7dbb8" stroke-width="1.51"/><path d="M270,948L325,1086L390,906Z" fill="#839eb0" stroke="#839eb0" stroke-width="1.51"/><path d="M230,135L389,238L398,67Z" fill="#c1e6b5" stroke="#c1e6b5" stroke-width="1.51"/><path d="M299,522L332,668L424,618Z" fill="#89c8bd" stroke="#89c8bd" stroke-width="1.51"/><path d="M244,2L398,67L428,-52Z" fill="#ceebb4" stroke="#ceebb4" stroke-width="1.51"/><path d="M337,-217L244,2L428,-52Z" fill="#d8f0b3" stroke="#d8f0b3" stroke-width="1.51"/><path d="M332,668L226,728L418,808Z" fill="#87bdbb" stroke="#87bdbb" stroke-width="1.51"/><path d="M226,728L390,906L418,808Z" fill="#83b3b8" stroke="#83b3b8" stroke-width="1.51"/><path d="M230,135L234,218L389,238Z" fill="#bde4b6" stroke="#bde4b6" stroke-width="1.51"/><path d="M226,728L270,948L390,906Z" fill="#87aeb6" stroke="#87aeb6" stroke-width="1.51"/><path d="M325,1086L317,1367L413,1187Z" fill="#7d86a2" stroke="#7d86a2" stroke-width="1.51"/><path d="M244,2L230,135L398,67Z" fill="#ceebb4" stroke="#ceebb4" stroke-width="1.51"/><path d="M99,1099L317,1367L325,1086Z" fill="#878ba5" stroke="#878ba5" stroke-width="1.51"/><path d="M99,1099L78,1330L317,1367Z" fill="#85869a" stroke="#85869a" stroke-width="1.51"/><path d="M81,-186L165,3L244,2Z" fill="#e0f2b3" stroke="#e0f2b3" stroke-width="1.51"/><path d="M234,218L94,470L299,522Z" fill="#a6d9b9" stroke="#a6d9b9" stroke-width="1.51"/><path d="M299,522L133,645L332,668Z" fill="#91cabc" stroke="#91cabc" stroke-width="1.51"/><path d="M133,645L226,728L332,668Z" fill="#90c4bb" stroke="#90c4bb" stroke-width="1.51"/><path d="M81,-186L244,2L337,-217Z" fill="#e2f4b6" stroke="#e2f4b6" stroke-width="1.51"/><path d="M226,728L114,790L270,948Z" fill="#8eb5b7" stroke="#8eb5b7" stroke-width="1.51"/><path d="M270,948L153,967L325,1086Z" fill="#899eae" stroke="#899eae" stroke-width="1.51"/><path d="M153,967L99,1099L325,1086Z" fill="#8c9aac" stroke="#8c9aac" stroke-width="1.51"/><path d="M50,253L94,470L234,218Z" fill="#b4e0b7" stroke="#b4e0b7" stroke-width="1.51"/><path d="M114,790L153,967L270,948Z" fill="#8eacb3" stroke="#8eacb3" stroke-width="1.51"/><path d="M94,470L133,645L299,522Z" fill="#9ad2bc" stroke="#9ad2bc" stroke-width="1.51"/><path d="M165,3L230,135L244,2Z" fill="#d4eeb3" stroke="#d4eeb3" stroke-width="1.51"/><path d="M230,135L95,180L234,218Z" fill="#c5e8b5" stroke="#c5e8b5" stroke-width="1.51"/><path d="M95,180L50,253L234,218Z" fill="#c4e7b5" stroke="#c4e7b5" stroke-width="1.51"/><path d="M165,3L95,180L230,135Z" fill="#d2edb4" stroke="#d2edb4" stroke-width="1.51"/><path d="M133,645L114,790L226,728Z" fill="#94c2bc" stroke="#94c2bc" stroke-width="1.51"/><path d="M114,790L-15,789L153,967Z" fill="#96b4b6" stroke="#96b4b6" stroke-width="1.51"/><path d="M-15,789L-89,955L153,967Z" fill="#99aeb3" stroke="#99aeb3" stroke-width="1.51"/><path d="M81,-186L-87,-60L165,3Z" fill="#e9f7b1" stroke="#e9f7b1" stroke-width="1.51"/><path d="M-87,-60L-87,54L165,3Z" fill="#e5f5b2" stroke="#e5f5b2" stroke-width="1.51"/><path d="M-87,54L95,180L165,3Z" fill="#dbf1b3" stroke="#dbf1b3" stroke-width="1.51"/><path d="M-88,1134L78,1330L99,1099Z" fill="#958fa4" stroke="#958fa4" stroke-width="1.51"/><path d="M94,470L-63,489L133,645Z" fill="#a3d6bc" stroke="#a3d6bc" stroke-width="1.51"/><path d="M-15,789L114,790L133,645Z" fill="#98c2bb" stroke="#98c2bb" stroke-width="1.51"/><path d="M-89,955L99,1099L153,967Z" fill="#95a2ae" stroke="#95a2ae" stroke-width="1.51"/><path d="M50,253L-63,489L94,470Z" fill="#b1deb8" stroke="#b1deb8" stroke-width="1.51"/><path d="M-63,489L-87,673L133,645Z" fill="#a4d1bc" stroke="#a4d1bc" stroke-width="1.51"/><path d="M-87,673L-15,789L133,645Z" fill="#9ec8bb" stroke="#9ec8bb" stroke-width="1.51"/><path d="M-116,282L-63,489L50,253Z" fill="#bae2ba" stroke="#bae2ba" stroke-width="1.51"/><path d="M-88,1134L-111,1301L78,1330Z" fill="#918b9d" stroke="#918b9d" stroke-width="1.51"/><path d="M-34,-210L-87,-60L81,-186Z" fill="#f0f9b7" stroke="#f0f9b7" stroke-width="1.51"/><path d="M-89,955L-88,1134L99,1099Z" fill="#999dad" stroke="#999dad" stroke-width="1.51"/><path d="M-87,54L50,253L95,180Z" fill="#d2edb4" stroke="#d2edb4" stroke-width="1.51"/><path d="M-166,111L-116,282L-87,54Z" fill="#d8f0bb" stroke="#d8f0bb" stroke-width="1.51"/><path d="M-87,54L-116,282L50,253Z" fill="#cfebb8" stroke="#cfebb8" stroke-width="1.51"/><path d="M-87,673L-237,754L-15,789Z" fill="#a0c5c1" stroke="#a0c5c1" stroke-width="1.51"/><path d="M-237,754L-89,955L-15,789Z" fill="#9eb9bd" stroke="#9eb9bd" stroke-width="1.51"/><path d="M-259,650L-87,673L-63,489Z" fill="#a6d2c4" stroke="#a6d2c4" stroke-width="1.51"/><path d="M-288,-283L-87,-60L-34,-210Z" fill="#f5fbc2" stroke="#f5fbc2" stroke-width="1.51"/><path d="M-237,754L-252,986L-89,955Z" fill="#9eb2bf" stroke="#9eb2bf" stroke-width="1.51"/><path d="M-213,1273L-111,1301L-88,1134Z" fill="#948da5" stroke="#948da5" stroke-width="1.51"/><path d="M-89,955L-252,986L-88,1134Z" fill="#9ba2b5" stroke="#9ba2b5" stroke-width="1.51"/><path d="M-288,-283L-259,6L-87,-60Z" fill="#f4fbc0" stroke="#f4fbc0" stroke-width="1.51"/><path d="M-116,282L-295,482L-63,489Z" fill="#b5dfc2" stroke="#b5dfc2" stroke-width="1.51"/><path d="M-295,482L-259,650L-63,489Z" fill="#aad9c8" stroke="#aad9c8" stroke-width="1.51"/><path d="M-166,111L-266,230L-116,282Z" fill="#d2edbf" stroke="#d2edbf" stroke-width="1.51"/><path d="M-289,1140L-213,1273L-88,1134Z" fill="#9a91b1" stroke="#9a91b1" stroke-width="1.51"/><path d="M-252,986L-289,1140L-88,1134Z" fill="#9c9cb7" stroke="#9c9cb7" stroke-width="1.51"/><path d="M-87,-60L-259,6L-87,54Z" fill="#e9f6bb" stroke="#e9f6bb" stroke-width="1.51"/><path d="M-259,6L-166,111L-87,54Z" fill="#e5f5bd" stroke="#e5f5bd" stroke-width="1.51"/><path d="M-259,650L-237,754L-87,673Z" fill="#a3cac7" stroke="#a3cac7" stroke-width="1.51"/><path d="M-266,230L-295,482L-116,282Z" fill="#bfe5c5" stroke="#bfe5c5" stroke-width="1.51"/><path d="M-259,6L-266,230L-166,111Z" fill="#e1f3c1" stroke="#e1f3c1" stroke-width="1.51"/><path d="M-259,650L-252,986L-237,754Z" fill="#a1c0c7" stroke="#a1c0c7" stroke-width="1.51"/><path d="M-295,482L-289,1140L-259,650Z" fill="#a3c5cb" stroke="#a3c5cb" stroke-width="1.51"/><path d="M-259,650L-289,1140L-252,986Z" fill="#9eafc1" stroke="#9eafc1" stroke-width="1.51"/><path d="M-288,-283L-266,230L-259,6Z" fill="#eef8c2" stroke="#eef8c2" stroke-width="1.51"/><path d="M-288,-283L-295,482L-266,230Z" fill="#def2c5" stroke="#def2c5" stroke-width="1.51"/></svg>