<?xml version="1.0" encoding="utf-8"?>
<!-- Generator: Adobe Illustrator 18.1.0, SVG Export Plug-In . SVG Version: 6.00 Build 0)  -->
<svg version="1.1" xmlns="http://www.w3.org/2000/svg" xmlns:xlink="http://www.w3.org/1999/xlink" x="0px" y="0px"
	 viewBox="0 0 451.7 294.4" enable-background="new 0 0 451.7 294.4" xml:space="preserve">
<g id="Layer_2" display="none">
	<rect x="0" y="0" display="inline" stroke="#FFFFFF" stroke-width="7" stroke-miterlimit="10" width="451.7" height="294.4"/>
</g>
<g id="Layer_1">
	<text transform="matrix(1 0 0 1 93.5531 155.0735)" fill="#6ACBDB" font-family="'MavenProBold'" font-size="80"> </text>
	<path fill="#59D8E5" d="M189.6,89.7l0,49.5l-14.8,14.8l5,34.6c0,0,11.3-20.1,22.6-27.2l7.2,56.9l7.2-57.9
		c15,5.9,22.5,28.3,22.5,28.3l5-34.6l-14.8-14.8l0-49.5l-19.8-29.7L189.6,89.7z"/>
	<g>
		<path fill="#FFFFFF" d="M326,136.1c0,0,0,0.7,0,2.1c-0.1,1.4,0,3.4-0.2,6c-0.3,5.2-1.2,12.9-3.7,22.4c-0.3,1.2-0.7,2.4-1,3.6
			c-0.4,1.2-0.8,2.5-1.2,3.8c-0.4,1.3-0.9,2.6-1.4,3.9c-0.5,1.3-1,2.7-1.6,4c-2.3,5.5-5.2,11.2-8.8,17c-3.7,5.8-8,11.7-13.3,17.4
			c-5.3,5.7-11.3,11.3-18.2,16.3c-7,5-14.7,9.5-23.3,13.1c-8.6,3.7-17.9,6.4-27.8,8c-1.2,0.2-2.5,0.4-3.7,0.5
			c-1.3,0.1-2.5,0.3-3.8,0.4c-1.3,0.1-2.5,0.2-3.8,0.3l-1.9,0.1l-2,0c-1.2,0-2.5,0-3.7,0.1c-1.3,0-2.6-0.1-4-0.1
			c-2.7,0-5.3-0.3-8-0.5c-5.3-0.6-10.6-1.4-15.9-2.7c-2.7-0.6-5.3-1.4-7.9-2.2c-1.3-0.4-2.6-0.9-3.9-1.4l-2-0.7l-1.9-0.8
			c-5.2-2-10.3-4.5-15.2-7.3c-1.2-0.7-2.4-1.5-3.7-2.2c-1.2-0.8-2.4-1.6-3.6-2.4c-1.2-0.8-2.4-1.6-3.5-2.5c-1.2-0.9-2.4-1.7-3.5-2.6
			c-9.1-7.2-17.3-15.8-24.1-25.6c-3.4-4.9-6.4-10.1-9.1-15.5c-2.7-5.4-4.8-11.1-6.7-16.8c-1.9-5.8-3.2-11.7-4.1-17.7
			c-0.9-6-1.3-12.1-1.4-18.2l0.1-4.5c0-0.7,0-1.3,0.1-2.2l0.2-2.4c0.1-1.6,0.2-3.2,0.4-4.7l0.6-4.5c1-6,2.2-12,4.1-17.7
			c1.9-5.8,4-11.4,6.7-16.8c2.7-5.4,5.7-10.6,9.1-15.5c6.8-9.8,15-18.4,24.1-25.6c9.1-7.1,19.1-12.9,29.5-17l1.9-0.8l2-0.7
			c1.3-0.5,2.6-0.9,3.9-1.4c2.7-0.8,5.3-1.6,7.9-2.2c5.3-1.3,10.6-2.1,15.9-2.7c2.7-0.2,5.3-0.5,7.9-0.5c1.3,0,2.6-0.1,3.9-0.1
			c1.3,0,2.6,0,3.9,0.1l2,0l1.8,0.1c1.2,0.1,2.4,0.2,3.7,0.3c1.3,0.1,2.6,0.3,3.8,0.4c1.3,0.2,2.6,0.3,3.8,0.5
			c9.9,1.6,19.3,4.3,27.8,8c8.6,3.6,16.4,8.2,23.3,13.1c7,5,13,10.6,18.2,16.3c5.2,5.7,9.6,11.6,13.3,17.4c3.7,5.8,6.5,11.6,8.8,17
			c0.6,1.3,1.1,2.7,1.6,4c0.5,1.3,1,2.6,1.4,3.9c0.4,1.3,0.8,2.6,1.2,3.8c0.3,1.2,0.7,2.5,1,3.6c2.5,9.5,3.4,17.2,3.7,22.4
			c0.2,2.6,0.2,4.6,0.2,6C326,135.4,326,136.1,326,136.1z M326,136.1c0,0,0-0.7-0.1-2.1c-0.1-1.4,0-3.4-0.3-6
			c-0.4-5.2-1.2-12.9-4-22.3c-2.7-9.4-7.2-20.5-15-31.7c-3.8-5.6-8.5-11.1-13.9-16.4c-5.4-5.3-11.7-10.2-18.7-14.6
			c-7-4.3-14.8-8-23.2-10.7c-8.4-2.8-17.3-4.4-26.6-5.1c-1.2-0.1-2.3-0.1-3.4-0.2c-1.1,0-2.3-0.1-3.4-0.1c-1.2,0-2.4,0-3.7,0.1
			l-1.8,0l-1.6,0.1c-1.2,0.1-2.4,0.2-3.5,0.3c-1.2,0.1-2.4,0.3-3.5,0.4c-2.4,0.2-4.7,0.7-7.1,1.1c-4.7,1-9.4,2.1-14,3.7
			c-2.3,0.7-4.6,1.7-6.9,2.6c-1.1,0.5-2.2,1-3.4,1.5l-1.7,0.7l-1.6,0.8c-17.6,8.7-33.2,22.6-44,39.8c-5.4,8.6-9.6,17.9-12.5,27.7
			l-1,3.7c-0.3,1.2-0.5,2.5-0.8,3.7l-0.4,1.9l-0.3,1.9c-0.2,1.3-0.5,2.5-0.6,3.8l-0.5,3.8c-0.2,1.3-0.2,2.4-0.3,3.7l-0.1,1.8
			c-0.1,0.6,0,1.4-0.1,2l0,2.1l0,1l0,0.5l0,0.3c0,0,0,0.4,0,0c0,5.1,0.3,10.2,1.1,15.3c0.2,1.3,0.4,2.5,0.6,3.8l0.3,1.9l0.4,1.9
			c0.3,1.2,0.5,2.5,0.8,3.7l1,3.7c2.9,9.8,7.1,19.1,12.5,27.7c10.8,17.2,26.4,31.1,44,39.8l1.6,0.8l1.7,0.7c1.1,0.5,2.2,1,3.4,1.5
			c2.3,0.9,4.5,1.8,6.9,2.6c4.6,1.6,9.3,2.8,14,3.7c2.4,0.4,4.7,0.9,7,1.1c1.2,0.1,2.3,0.3,3.5,0.4c1.2,0.1,2.5,0.2,3.7,0.3l1.7,0.1
			l1.8,0c1.2,0,2.4,0.1,3.5,0.1c1.2,0,2.3-0.1,3.5-0.1c1.2,0,2.3,0,3.5-0.2c9.2-0.7,18.2-2.3,26.6-5.1c8.4-2.8,16.2-6.4,23.2-10.8
			c7-4.3,13.3-9.3,18.7-14.6c5.4-5.3,10.1-10.8,13.9-16.4c7.8-11.2,12.3-22.3,15-31.7c2.7-9.4,3.6-17.1,4-22.3
			c0.3-2.6,0.2-4.6,0.3-6C325.9,136.8,326,136.1,326,136.1z"/>
	</g>
</g>
</svg>
